<svg width="672" height="425" viewBox="0 0 672 425" fill="none" xmlns="http://www.w3.org/2000/svg">
<g clip-path="url(#clip0_18_24)">
<path d="M254.678 66.9161C254.215 67.5131 253.575 67.9485 252.849 68.1599C252.124 68.3714 251.35 68.348 250.639 68.0933C250.422 68.0292 250.21 67.9518 250.003 67.8615C250.237 65.3644 250.121 62.847 249.659 60.3819C249.478 62.5008 248.96 64.5772 248.124 66.5328C247.443 65.8498 246.885 65.0539 246.476 64.1804C245.714 62.373 245.208 60.4676 244.975 58.5199C243.847 51.8841 242.734 44.9806 244.575 38.4956C247.27 29.0222 255.771 22.2119 259.321 13.0206L261.071 11.4506C264.065 16.5486 264.197 22.8834 262.977 28.6642C261.763 34.4564 259.316 39.8927 257.382 45.4785C255.448 51.0643 253.999 57.006 254.896 62.8509C255.102 64.2272 255.417 65.7398 254.678 66.9161Z" fill="#2F2E41"/>
<path d="M215.803 147.075L204.403 199.203L254.194 215.417L246.872 147.075H215.803Z" fill="#FFB6B6"/>
<path d="M567.154 423.721H589.717V320.3C589.687 293.61 579.069 268.022 560.193 249.149C541.317 230.276 515.724 219.66 489.029 219.63H279.341C252.646 219.66 227.053 230.276 208.177 249.149C189.301 268.022 178.683 293.61 178.653 320.3V423.721H201.216V353.067C201.246 326.129 211.962 300.302 231.014 281.254C250.066 262.206 275.897 251.491 302.84 251.46H465.53C492.473 251.491 518.304 262.206 537.356 281.254C556.408 300.302 567.124 326.129 567.154 353.067V423.721Z" fill="#E6E6E6"/>
<path d="M292.983 369.616L268.936 362.337C267.373 355.913 266.584 349.324 266.587 342.712C266.599 341.218 267.035 339.759 267.846 338.505C268.657 337.25 269.808 336.253 271.165 335.629C272.522 335.004 274.029 334.78 275.509 334.98C276.989 335.181 278.381 335.799 279.523 336.762C292.42 347.822 311.311 353.724 323.502 366.328C328.548 371.624 332.336 377.989 334.588 384.949C336.839 391.908 337.495 399.286 336.506 406.533L341.77 423.554C329.99 422.704 318.534 419.311 308.193 413.608C297.851 407.905 288.868 400.029 281.864 390.521C277.988 385.148 274.804 379.309 272.387 373.14C282.585 371.984 292.983 369.616 292.983 369.616Z" fill="#F2F2F2"/>
<path d="M355.653 397.49L367.917 393.777C367.933 393.712 367.948 393.647 367.964 393.582C368.303 392.082 368.196 390.516 367.655 389.076C367.114 387.636 366.164 386.387 364.921 385.481C363.677 384.576 362.196 384.054 360.66 383.981C359.124 383.908 357.6 384.286 356.276 385.069C350.708 388.375 344.526 391.222 340.087 395.812C337.513 398.514 335.581 401.76 334.433 405.31C333.285 408.86 332.95 412.622 333.454 416.319L330.77 425C336.778 424.567 342.62 422.836 347.895 419.927C353.17 417.019 357.751 413.001 361.323 408.152C363.3 405.412 364.925 402.433 366.157 399.287C360.956 398.697 355.653 397.49 355.653 397.49Z" fill="#F2F2F2"/>
<path d="M454.931 143.36H407.171C406.495 143.361 405.848 143.63 405.371 144.108C404.894 144.587 404.626 145.235 404.627 145.91V221.343H457.482V145.91C457.482 145.575 457.416 145.244 457.288 144.934C457.16 144.624 456.972 144.343 456.735 144.106C456.498 143.87 456.217 143.682 455.907 143.554C455.598 143.425 455.266 143.36 454.931 143.36ZM431.212 186.22C429.718 186.213 428.288 185.617 427.232 184.561C426.175 183.505 425.579 182.075 425.572 180.581V171.881C425.574 170.386 426.169 168.954 427.226 167.898C428.284 166.842 429.717 166.249 431.212 166.249C432.706 166.249 434.139 166.842 435.197 167.898C436.254 168.954 436.849 170.386 436.851 171.881V180.581C436.844 182.075 436.248 183.505 435.192 184.561C434.136 185.617 432.705 186.213 431.212 186.22Z" fill="#3F3D56"/>
<path d="M534.017 25.6381H329.862C328.108 25.6408 326.427 26.3387 325.187 27.5788C323.946 28.8188 323.248 30.4999 323.246 32.2536V169.993C323.247 171.747 323.945 173.429 325.185 174.669C326.426 175.91 328.108 176.607 329.862 176.609H534.017C535.771 176.607 537.453 175.91 538.694 174.669C539.934 173.429 540.632 171.747 540.633 169.993V32.2536C540.631 30.4999 539.933 28.8188 538.692 27.5788C537.452 26.3388 535.771 25.6409 534.017 25.6381Z" fill="#3F3D56"/>
<path d="M532.313 30.4164H331.568C330.629 30.4184 329.729 30.7928 329.065 31.4575C328.402 32.1221 328.029 33.0228 328.029 33.9617V168.287C328.031 169.225 328.404 170.124 329.068 170.787C329.731 171.451 330.63 171.824 331.568 171.825H532.313C533.251 171.824 534.15 171.451 534.813 170.787C535.476 170.124 535.85 169.225 535.851 168.287V33.9617C535.851 33.0227 535.479 32.1221 534.815 31.4575C534.152 30.7928 533.252 30.4184 532.313 30.4164Z" fill="white"/>
<path d="M404.463 218.93V226.208C404.464 226.585 404.614 226.947 404.88 227.213C405.147 227.48 405.509 227.63 405.886 227.631H456.223C456.6 227.629 456.96 227.479 457.227 227.212C457.493 226.946 457.644 226.585 457.646 226.208V218.93H404.463Z" fill="#3F3D56"/>
<path d="M493.211 230.163H373.779C373.452 230.163 373.129 230.09 372.834 229.95C372.539 229.809 372.279 229.605 372.073 229.351C371.867 229.097 371.72 228.8 371.643 228.483C371.567 228.165 371.562 227.834 371.629 227.514L373.482 218.714C373.588 218.222 373.858 217.781 374.249 217.463C374.64 217.146 375.128 216.972 375.632 216.97H491.358C491.862 216.972 492.35 217.146 492.741 217.463C493.132 217.781 493.402 218.222 493.508 218.714L495.361 227.514C495.428 227.834 495.423 228.165 495.347 228.483C495.27 228.8 495.123 229.097 494.917 229.351C494.711 229.605 494.451 229.809 494.156 229.95C493.861 230.09 493.538 230.163 493.211 230.163Z" fill="#3F3D56"/>
<path d="M379.701 218.555H376.937C376.685 218.555 376.48 218.759 376.48 219.012V220.304C376.48 220.557 376.685 220.761 376.937 220.761H379.701C379.954 220.761 380.158 220.557 380.158 220.304V219.012C380.158 218.759 379.954 218.555 379.701 218.555Z" fill="#E6E6E6"/>
<path d="M387.058 218.555H384.294C384.041 218.555 383.837 218.759 383.837 219.012V220.304C383.837 220.557 384.041 220.761 384.294 220.761H387.058C387.31 220.761 387.515 220.557 387.515 220.304V219.012C387.515 218.759 387.31 218.555 387.058 218.555Z" fill="#E6E6E6"/>
<path d="M394.415 218.555H391.651C391.398 218.555 391.193 218.759 391.193 219.012V220.304C391.193 220.557 391.398 220.761 391.651 220.761H394.415C394.667 220.761 394.872 220.557 394.872 220.304V219.012C394.872 218.759 394.667 218.555 394.415 218.555Z" fill="#E6E6E6"/>
<path d="M401.771 218.555H399.007C398.755 218.555 398.55 218.759 398.55 219.012V220.304C398.55 220.557 398.755 220.761 399.007 220.761H401.771C402.024 220.761 402.229 220.557 402.229 220.304V219.012C402.229 218.759 402.024 218.555 401.771 218.555Z" fill="#E6E6E6"/>
<path d="M409.128 218.555H406.364C406.112 218.555 405.907 218.759 405.907 219.012V220.304C405.907 220.557 406.112 220.761 406.364 220.761H409.128C409.381 220.761 409.585 220.557 409.585 220.304V219.012C409.585 218.759 409.381 218.555 409.128 218.555Z" fill="#E6E6E6"/>
<path d="M416.485 218.555H413.721C413.468 218.555 413.264 218.759 413.264 219.012V220.304C413.264 220.557 413.468 220.761 413.721 220.761H416.485C416.738 220.761 416.942 220.557 416.942 220.304V219.012C416.942 218.759 416.738 218.555 416.485 218.555Z" fill="#E6E6E6"/>
<path d="M423.842 218.555H421.078C420.825 218.555 420.621 218.759 420.621 219.012V220.304C420.621 220.557 420.825 220.761 421.078 220.761H423.842C424.094 220.761 424.299 220.557 424.299 220.304V219.012C424.299 218.759 424.094 218.555 423.842 218.555Z" fill="#E6E6E6"/>
<path d="M431.199 218.555H428.434C428.182 218.555 427.977 218.759 427.977 219.012V220.304C427.977 220.557 428.182 220.761 428.434 220.761H431.199C431.451 220.761 431.656 220.557 431.656 220.304V219.012C431.656 218.759 431.451 218.555 431.199 218.555Z" fill="#E6E6E6"/>
<path d="M438.555 218.555H435.791C435.539 218.555 435.334 218.759 435.334 219.012V220.304C435.334 220.557 435.539 220.761 435.791 220.761H438.555C438.808 220.761 439.013 220.557 439.013 220.304V219.012C439.013 218.759 438.808 218.555 438.555 218.555Z" fill="#E6E6E6"/>
<path d="M445.912 218.555H443.148C442.896 218.555 442.691 218.759 442.691 219.012V220.304C442.691 220.557 442.896 220.761 443.148 220.761H445.912C446.165 220.761 446.369 220.557 446.369 220.304V219.012C446.369 218.759 446.165 218.555 445.912 218.555Z" fill="#E6E6E6"/>
<path d="M453.269 218.555H450.505C450.252 218.555 450.048 218.759 450.048 219.012V220.304C450.048 220.557 450.252 220.761 450.505 220.761H453.269C453.521 220.761 453.726 220.557 453.726 220.304V219.012C453.726 218.759 453.521 218.555 453.269 218.555Z" fill="#E6E6E6"/>
<path d="M460.626 218.555H457.862C457.609 218.555 457.404 218.759 457.404 219.012V220.304C457.404 220.557 457.609 220.761 457.862 220.761H460.626C460.878 220.761 461.083 220.557 461.083 220.304V219.012C461.083 218.759 460.878 218.555 460.626 218.555Z" fill="#E6E6E6"/>
<path d="M467.983 218.555H465.218C464.966 218.555 464.761 218.759 464.761 219.012V220.304C464.761 220.557 464.966 220.761 465.218 220.761H467.983C468.235 220.761 468.44 220.557 468.44 220.304V219.012C468.44 218.759 468.235 218.555 467.983 218.555Z" fill="#E6E6E6"/>
<path d="M475.339 218.555H472.575C472.323 218.555 472.118 218.759 472.118 219.012V220.304C472.118 220.557 472.323 220.761 472.575 220.761H475.339C475.592 220.761 475.796 220.557 475.796 220.304V219.012C475.796 218.759 475.592 218.555 475.339 218.555Z" fill="#E6E6E6"/>
<path d="M482.696 218.555H479.932C479.679 218.555 479.475 218.759 479.475 219.012V220.304C479.475 220.557 479.679 220.761 479.932 220.761H482.696C482.949 220.761 483.153 220.557 483.153 220.304V219.012C483.153 218.759 482.949 218.555 482.696 218.555Z" fill="#E6E6E6"/>
<path d="M490.053 218.555H487.289C487.036 218.555 486.832 218.759 486.832 219.012V220.304C486.832 220.557 487.036 220.761 487.289 220.761H490.053C490.305 220.761 490.51 220.557 490.51 220.304V219.012C490.51 218.759 490.305 218.555 490.053 218.555Z" fill="#E6E6E6"/>
<path d="M379.614 222.233H376.85C376.598 222.233 376.393 222.437 376.393 222.69V223.982C376.393 224.235 376.598 224.439 376.85 224.439H379.614C379.867 224.439 380.071 224.235 380.071 223.982V222.69C380.071 222.437 379.867 222.233 379.614 222.233Z" fill="#E6E6E6"/>
<path d="M386.971 222.233H384.207C383.954 222.233 383.75 222.437 383.75 222.69V223.982C383.75 224.235 383.954 224.439 384.207 224.439H386.971C387.223 224.439 387.428 224.235 387.428 223.982V222.69C387.428 222.437 387.223 222.233 386.971 222.233Z" fill="#E6E6E6"/>
<path d="M394.328 222.233H391.564C391.311 222.233 391.106 222.437 391.106 222.69V223.982C391.106 224.235 391.311 224.439 391.564 224.439H394.328C394.58 224.439 394.785 224.235 394.785 223.982V222.69C394.785 222.437 394.58 222.233 394.328 222.233Z" fill="#E6E6E6"/>
<path d="M401.685 222.233H398.92C398.668 222.233 398.463 222.437 398.463 222.69V223.982C398.463 224.235 398.668 224.439 398.92 224.439H401.685C401.937 224.439 402.142 224.235 402.142 223.982V222.69C402.142 222.437 401.937 222.233 401.685 222.233Z" fill="#E6E6E6"/>
<path d="M409.041 222.233H406.277C406.025 222.233 405.82 222.437 405.82 222.69V223.982C405.82 224.235 406.025 224.439 406.277 224.439H409.041C409.294 224.439 409.498 224.235 409.498 223.982V222.69C409.498 222.437 409.294 222.233 409.041 222.233Z" fill="#E6E6E6"/>
<path d="M416.398 222.233H413.634C413.382 222.233 413.177 222.437 413.177 222.69V223.982C413.177 224.235 413.382 224.439 413.634 224.439H416.398C416.651 224.439 416.855 224.235 416.855 223.982V222.69C416.855 222.437 416.651 222.233 416.398 222.233Z" fill="#E6E6E6"/>
<path d="M423.755 222.233H420.991C420.738 222.233 420.534 222.437 420.534 222.69V223.982C420.534 224.235 420.738 224.439 420.991 224.439H423.755C424.007 224.439 424.212 224.235 424.212 223.982V222.69C424.212 222.437 424.007 222.233 423.755 222.233Z" fill="#E6E6E6"/>
<path d="M431.112 222.233H428.348C428.095 222.233 427.89 222.437 427.89 222.69V223.982C427.89 224.235 428.095 224.439 428.348 224.439H431.112C431.364 224.439 431.569 224.235 431.569 223.982V222.69C431.569 222.437 431.364 222.233 431.112 222.233Z" fill="#E6E6E6"/>
<path d="M438.468 222.233H435.704C435.452 222.233 435.247 222.437 435.247 222.69V223.982C435.247 224.235 435.452 224.439 435.704 224.439H438.468C438.721 224.439 438.926 224.235 438.926 223.982V222.69C438.926 222.437 438.721 222.233 438.468 222.233Z" fill="#E6E6E6"/>
<path d="M445.825 222.233H443.061C442.809 222.233 442.604 222.437 442.604 222.69V223.982C442.604 224.235 442.809 224.439 443.061 224.439H445.825C446.078 224.439 446.282 224.235 446.282 223.982V222.69C446.282 222.437 446.078 222.233 445.825 222.233Z" fill="#E6E6E6"/>
<path d="M453.182 222.233H450.418C450.165 222.233 449.961 222.437 449.961 222.69V223.982C449.961 224.235 450.165 224.439 450.418 224.439H453.182C453.435 224.439 453.639 224.235 453.639 223.982V222.69C453.639 222.437 453.435 222.233 453.182 222.233Z" fill="#E6E6E6"/>
<path d="M460.539 222.233H457.775C457.522 222.233 457.318 222.437 457.318 222.69V223.982C457.318 224.235 457.522 224.439 457.775 224.439H460.539C460.791 224.439 460.996 224.235 460.996 223.982V222.69C460.996 222.437 460.791 222.233 460.539 222.233Z" fill="#E6E6E6"/>
<path d="M467.896 222.233H465.132C464.879 222.233 464.674 222.437 464.674 222.69V223.982C464.674 224.235 464.879 224.439 465.132 224.439H467.896C468.148 224.439 468.353 224.235 468.353 223.982V222.69C468.353 222.437 468.148 222.233 467.896 222.233Z" fill="#E6E6E6"/>
<path d="M475.252 222.233H472.488C472.236 222.233 472.031 222.437 472.031 222.69V223.982C472.031 224.235 472.236 224.439 472.488 224.439H475.252C475.505 224.439 475.71 224.235 475.71 223.982V222.69C475.71 222.437 475.505 222.233 475.252 222.233Z" fill="#E6E6E6"/>
<path d="M482.609 222.233H479.845C479.593 222.233 479.388 222.437 479.388 222.69V223.982C479.388 224.235 479.593 224.439 479.845 224.439H482.609C482.862 224.439 483.066 224.235 483.066 223.982V222.69C483.066 222.437 482.862 222.233 482.609 222.233Z" fill="#E6E6E6"/>
<path d="M489.966 222.233H487.202C486.949 222.233 486.745 222.437 486.745 222.69V223.982C486.745 224.235 486.949 224.439 487.202 224.439H489.966C490.218 224.439 490.423 224.235 490.423 223.982V222.69C490.423 222.437 490.218 222.233 489.966 222.233Z" fill="#E6E6E6"/>
<path d="M440.676 226.646H412.163C411.91 226.646 411.706 226.85 411.706 227.103V228.395C411.706 228.648 411.91 228.853 412.163 228.853H440.676C440.928 228.853 441.133 228.648 441.133 228.395V227.103C441.133 226.85 440.928 226.646 440.676 226.646Z" fill="#E6E6E6"/>
<path d="M502.381 64.1366V134.838C502.38 139.573 500.498 144.114 497.15 147.462C493.801 150.81 489.26 152.691 484.524 152.691H396.019C392.535 152.692 389.126 151.674 386.213 149.763C383.3 147.852 381.01 145.131 379.623 141.935C379.159 140.878 378.804 139.777 378.565 138.649C380.447 139.376 382.447 139.748 384.464 139.744H472.969C477.333 139.738 481.517 138.002 484.603 134.917C487.688 131.831 489.425 127.649 489.431 123.286V52.5839C489.435 50.567 489.063 48.567 488.335 46.6859C489.464 46.9251 490.565 47.2796 491.622 47.7438C494.819 49.1297 497.54 51.4199 499.452 54.3325C501.363 57.2451 502.381 60.6529 502.381 64.1366Z" fill="#F2F2F2"/>
<path d="M172.194 345.431L163.416 350.866L137.555 319.082L150.51 311.063L172.194 345.431Z" fill="#FFB6B6"/>
<path d="M179.773 356.784L172.712 359.935L168.475 353.832L168.223 361.939L149.494 370.298C148.597 370.699 147.594 370.802 146.634 370.593C145.673 370.384 144.805 369.873 144.155 369.135C143.505 368.398 143.108 367.472 143.022 366.493C142.936 365.513 143.165 364.532 143.676 363.693L154.021 346.69L151.012 339.951L167.163 333.869L179.773 356.784Z" fill="#2F2E41"/>
<path d="M147.603 339.317L162.43 324.952C151.415 297.775 150.534 280.93 135.264 248.061C171.494 255.47 197.397 255.02 227.361 248.377C237.505 246.163 263.678 225.95 261.526 215.585C261.426 215.1 261.307 214.621 261.17 214.145C257.954 203.181 260.218 186.391 253.257 174.224C240.377 169.369 220.809 185.763 205.502 195.757C198.121 200.575 203.524 207.142 198.011 208.863L176.879 215.722L125.03 207.35C122.524 206.97 119.968 207.09 117.509 207.702C115.049 208.315 112.736 209.408 110.701 210.919C108.666 212.429 106.951 214.328 105.653 216.505C104.356 218.681 103.502 221.093 103.141 223.601C103.053 224.164 102.99 224.73 102.951 225.299C105.336 238.503 107.823 251.36 110.5 263.565C111.365 267.504 109.906 275.057 113.156 275.169C116.406 275.281 115.097 283.093 116.109 286.912C122.34 310.423 126.28 321.801 147.603 339.317Z" fill="#2F2E41"/>
<path d="M119.226 402.326L110.081 397.553L124.55 359.229L138.048 366.273L119.226 402.326Z" fill="#FFB6B6"/>
<path d="M117.702 373.714L132.367 383.809C150.34 357.821 162.009 323.093 170.7 284.235C204.539 269.477 234.149 252.591 254.783 229.942C258.171 226.145 259.948 221.178 259.736 216.094C259.525 211.009 257.342 206.207 253.65 202.704C253.289 202.365 252.916 202.041 252.53 201.731C243.593 194.613 223.744 198.709 211.057 192.76L188.393 224.122L190.998 231.427L183.114 235.264L176.457 238.504L168.837 242.213L143.857 254.372C141.592 255.504 139.574 257.073 137.919 258.988C136.263 260.904 135.004 263.128 134.213 265.533C133.421 267.937 133.114 270.475 133.309 272.999C133.503 275.523 134.196 277.983 135.346 280.238C135.599 280.749 135.872 281.248 136.168 281.736L126.89 327.947C126.89 327.947 129.443 335.992 125.426 335.239C121.41 334.486 123.599 344.344 123.599 344.344L117.702 373.714Z" fill="#2F2E41"/>
<path d="M113.688 423.447L106.832 419.87L108.987 412.76L102.475 417.596L84.292 408.108C83.4204 407.653 82.717 406.931 82.2846 406.049C81.8521 405.166 81.7131 404.168 81.888 403.201C82.0629 402.234 82.5425 401.348 83.2567 400.672C83.9709 399.997 84.8824 399.567 85.8581 399.446L105.612 396.997L109.027 390.455L123.824 399.335L113.688 423.447Z" fill="#2F2E41"/>
<path d="M313.58 222.537L302.884 196.693L294.457 201.374L299.546 227.664C299.037 229.33 299.002 231.104 299.445 232.789C299.889 234.473 300.794 236 302.058 237.199C303.323 238.397 304.896 239.219 306.602 239.572C308.308 239.925 310.079 239.796 311.715 239.198C313.351 238.6 314.789 237.558 315.865 236.188C316.941 234.819 317.614 233.176 317.808 231.445C318.002 229.714 317.709 227.963 316.962 226.39C316.215 224.816 315.044 223.482 313.58 222.537Z" fill="#FFB6B6"/>
<path d="M134.095 18.1686L150.37 40.9178L157.517 34.4495L146.602 9.99576C146.721 8.25802 146.353 6.52156 145.539 4.98156C144.725 3.44157 143.497 2.15911 141.994 1.27836C140.491 0.397613 138.772 -0.0465014 137.031 -0.00405453C135.289 0.0383924 133.594 0.565718 132.136 1.51864C130.677 2.47156 129.514 3.81229 128.776 5.39011C128.038 6.96793 127.755 8.72027 127.958 10.4501C128.162 12.18 128.844 13.8189 129.928 15.1824C131.012 16.5459 132.455 17.5801 134.095 18.1686H134.095Z" fill="#FFB6B6"/>
<path d="M207.589 162.356C197.033 178.727 235.706 214.395 256.066 206.055C259.631 204.594 271.895 199.77 263.512 193.082C255.13 186.395 264.484 193.879 264.705 189.526C264.853 186.615 262.599 180.23 264.951 180.504C267.302 180.777 268.652 173.977 263.53 172.245C261.75 171.609 260.187 170.479 259.026 168.986C257.865 167.494 257.154 165.701 256.976 163.819C256.486 145.876 262.564 127.141 262.564 127.141L287.376 190.555C287.376 190.555 287.192 201.525 290.356 198.173C293.52 194.82 293.29 205.671 293.29 205.671C293.29 205.671 297.995 208.954 295.29 210.781C292.584 212.608 298.202 218.225 298.202 218.225L311.311 217.289C311.311 217.289 311.106 207.553 308.868 205.399C306.63 203.246 307.729 199.858 307.729 199.858C307.729 199.858 303.114 195.566 305.808 190.512C308.502 185.458 286.191 95.0563 286.191 95.0563C285.297 90.7069 283.217 86.6893 280.182 83.4477C277.147 80.206 273.275 77.8665 268.993 76.6878L254.835 72.7901L252.32 62.8166H232.384L228.911 69.37L197.075 66.5614C197.075 66.5614 165.573 37.9045 167.111 35.6669C168.649 33.4293 163.766 28.1906 163.766 28.1906C163.766 28.1906 159.596 26.8259 161.949 26.0973C164.302 25.3687 159.854 23.6841 159.854 23.6841C159.854 23.6841 155.735 22.6017 157.678 21.1766C159.621 19.7515 151.193 18.8153 151.193 18.8153L140.259 27.735L142.469 31.4816C142.469 31.4816 141.122 36.5833 142.88 34.7208C144.639 32.8583 144.97 38.2633 144.97 38.2633C144.97 38.2633 145.868 44.1819 151.193 45.9651C156.519 47.7482 160.557 64.689 160.557 64.689L205.502 102.137C198.657 109.993 200.286 118.208 206.35 126.611L207.589 162.356Z" fill="#E8E8E8"/>
<path d="M241.903 56.1901C253.826 56.1901 263.491 46.5263 263.491 34.6054C263.491 22.6845 253.826 13.0208 241.903 13.0208C229.98 13.0208 220.314 22.6845 220.314 34.6054C220.314 46.5263 229.98 56.1901 241.903 56.1901Z" fill="#FFB6B6"/>
<path d="M260.748 28.1774C260.195 28.3365 252.086 29.3944 248.575 30.0497C245.129 30.6957 244.53 26.305 241.712 27.1288C241.713 27.1096 241.71 27.0903 241.702 27.0726C241.265 24.7462 240.519 22.4886 239.483 20.3601C239.859 22.3987 239.913 24.4837 239.642 26.539C239.641 26.5925 239.634 26.6458 239.623 26.6982C239.614 26.7918 239.595 26.876 239.586 26.9697C236.608 25.659 234.717 26.8292 232.657 27.2412C230.353 27.6999 228.556 28.711 229.848 36.6031C232.498 52.8368 246.281 58.6318 243.893 69.37C243.425 71.4952 242.245 74.154 240.766 74.8187C240.329 72.4922 239.583 70.2347 238.547 68.1062C238.922 70.1448 238.976 72.2298 238.706 74.2851C236.412 71.8041 234.754 63.1349 227.039 56.2633C225.138 54.5781 215.615 44.5795 214.473 42.2203C214.823 44.1065 214.993 46.022 214.978 47.9405C214.981 49.2245 214.893 50.5071 214.716 51.7789C214.716 51.8608 214.707 51.9425 214.688 52.0223C214.679 52.1721 214.651 52.3032 214.632 52.4436C214.613 52.6027 214.585 52.7525 214.557 52.9117C211.439 52.4623 208.677 51.9193 207.375 50.6461C201.045 44.4859 208.77 32.4839 212.993 21.624C219.033 6.07374 236.571 4.00475 238.275 3.83623C245.785 3.07791 258.473 4.68817 262.621 13.1982C265.523 19.1618 263.669 27.3348 260.748 28.1774Z" fill="#2F2E41"/>
<path d="M215.227 31.6874L230.865 7.36476C227.117 5.18943 222.849 4.07014 218.516 4.12589C216.356 4.17076 214.23 4.67012 212.277 5.59142C210.323 6.51272 208.586 7.83529 207.177 9.47292C203.984 13.4416 203.435 19.0519 204.632 24.0033C205.045 25.7134 212.915 19.6965 211.042 22.5051C209.505 24.704 206.991 33.9468 206.361 36.548C205.346 40.7345 202.556 45.0319 205.041 48.5506C207.98 52.7114 213.225 54.7797 218.316 54.9897C223.406 55.1998 228.417 53.7893 233.254 52.1917L215.227 31.6874Z" fill="#2F2E41"/>
<path d="M221.235 30.7282C221.01 30.7279 220.791 30.6461 220.621 30.4977C220.451 30.3494 220.34 30.1445 220.309 29.9209C220.278 29.6972 220.329 29.4699 220.452 29.2807C220.575 29.0916 220.763 28.9533 220.98 28.8914C221.225 28.4864 221.125 26.7818 221.044 25.4045C220.739 20.233 220.229 11.5778 228.634 5.73517C228.838 5.59345 229.09 5.53849 229.334 5.58238C229.578 5.62627 229.795 5.76542 229.937 5.96922C230.079 6.17302 230.134 6.42477 230.09 6.6691C230.046 6.91342 229.907 7.13031 229.703 7.27204C222.161 12.5157 222.613 20.206 222.913 25.2943C223.084 28.2034 223.208 30.3048 221.443 30.7048C221.375 30.7204 221.305 30.7282 221.235 30.7282Z" fill="#E8E8E8"/>
<path d="M1.09593e-06 423.115C-0.000874366 423.409 0.115339 423.692 0.323062 423.901C0.530784 424.11 0.813003 424.228 1.10765 424.229H670.886C671.181 424.229 671.465 424.111 671.674 423.902C671.883 423.694 672 423.41 672 423.115C672 422.819 671.883 422.536 671.674 422.327C671.465 422.118 671.181 422.001 670.886 422.001H1.1143C0.968406 422 0.823858 422.029 0.6889 422.084C0.553943 422.139 0.431218 422.221 0.327748 422.324C0.224278 422.426 0.142086 422.549 0.0858563 422.683C0.0296266 422.818 0.000458186 422.962 2.96715e-05 423.108L1.09593e-06 423.115Z" fill="#CCCCCC"/>
<path d="M414.373 88.7978H400.204C399.828 88.7978 399.468 88.6485 399.202 88.3829C398.937 88.1172 398.787 87.7569 398.787 87.3811C398.787 87.0054 398.937 86.6451 399.202 86.3794C399.468 86.1137 399.828 85.9645 400.204 85.9645H414.373C414.749 85.9645 415.11 86.1137 415.375 86.3794C415.641 86.6451 415.79 87.0054 415.79 87.3811C415.79 87.7569 415.641 88.1172 415.375 88.3829C415.11 88.6485 414.749 88.7978 414.373 88.7978Z" fill="#E8E8E8"/>
<path d="M439.878 88.7978H425.709C425.523 88.7978 425.338 88.7612 425.166 88.69C424.995 88.6188 424.838 88.5144 424.707 88.3829C424.575 88.2513 424.471 88.0951 424.4 87.9233C424.328 87.7514 424.292 87.5672 424.292 87.3811C424.292 87.1951 424.328 87.0109 424.4 86.839C424.471 86.6671 424.575 86.511 424.707 86.3794C424.838 86.2479 424.995 86.1435 425.166 86.0723C425.338 86.0011 425.523 85.9645 425.709 85.9645H439.878C440.064 85.9645 440.248 86.0011 440.42 86.0723C440.592 86.1435 440.748 86.2479 440.88 86.3794C441.011 86.511 441.116 86.6671 441.187 86.839C441.258 87.0109 441.295 87.1951 441.295 87.3811C441.295 87.5672 441.258 87.7514 441.187 87.9233C441.116 88.0951 441.011 88.2513 440.88 88.3829C440.748 88.5144 440.592 88.6188 440.42 88.69C440.248 88.7612 440.064 88.7978 439.878 88.7978Z" fill="#E8E8E8"/>
<path d="M452.63 100.131H438.461C438.275 100.131 438.091 100.094 437.919 100.023C437.747 99.952 437.591 99.8477 437.459 99.7161C437.327 99.5846 437.223 99.4284 437.152 99.2565C437.081 99.0846 437.044 98.9004 437.044 98.7144C437.044 98.5284 437.081 98.3441 437.152 98.1722C437.223 98.0004 437.327 97.8442 437.459 97.7127C437.591 97.5811 437.747 97.4767 437.919 97.4056C438.091 97.3344 438.275 97.2977 438.461 97.2977H452.63C452.816 97.2977 453 97.3344 453.172 97.4056C453.344 97.4767 453.5 97.5811 453.632 97.7127C453.763 97.8442 453.868 98.0004 453.939 98.1722C454.01 98.3441 454.047 98.5284 454.047 98.7144C454.047 98.9004 454.01 99.0846 453.939 99.2565C453.868 99.4284 453.763 99.5846 453.632 99.7161C453.5 99.8477 453.344 99.952 453.172 100.023C453 100.094 452.816 100.131 452.63 100.131Z" fill="#E8E8E8"/>
<path d="M427.204 100.131H400.204C399.828 100.131 399.468 99.9818 399.202 99.7161C398.937 99.4505 398.787 99.0901 398.787 98.7144C398.787 98.3387 398.937 97.9783 399.202 97.7127C399.468 97.447 399.828 97.2977 400.204 97.2977H427.204C427.58 97.2977 427.94 97.447 428.206 97.7127C428.471 97.9783 428.621 98.3387 428.621 98.7144C428.621 99.0901 428.471 99.4505 428.206 99.7161C427.94 99.9818 427.58 100.131 427.204 100.131Z" fill="#E8E8E8"/>
<path d="M478.213 88.7978H451.213C450.837 88.7978 450.477 88.6485 450.211 88.3829C449.945 88.1172 449.796 87.7569 449.796 87.3811C449.796 87.0054 449.945 86.6451 450.211 86.3794C450.477 86.1137 450.837 85.9645 451.213 85.9645H478.213C478.399 85.9645 478.583 86.0011 478.755 86.0723C478.927 86.1435 479.083 86.2479 479.215 86.3794C479.346 86.511 479.45 86.6671 479.522 86.839C479.593 87.0109 479.63 87.1951 479.63 87.3811C479.63 87.5672 479.593 87.7514 479.522 87.9233C479.45 88.0951 479.346 88.2513 479.215 88.3829C479.083 88.5144 478.927 88.6188 478.755 88.69C478.583 88.7612 478.399 88.7978 478.213 88.7978Z" fill="#E8E8E8"/>
<path d="M424.074 67.3364H397.074C396.888 67.3369 396.703 67.3006 396.531 67.2296C396.359 67.1586 396.202 67.0543 396.07 66.9227C395.938 66.7911 395.833 66.6348 395.762 66.4627C395.691 66.2906 395.654 66.1061 395.654 65.9197C395.654 65.7334 395.691 65.5489 395.762 65.3767C395.833 65.2046 395.938 65.0483 396.07 64.9167C396.202 64.7851 396.359 64.6808 396.531 64.6099C396.703 64.5389 396.888 64.5026 397.074 64.5031H424.074C424.45 64.5031 424.81 64.6523 425.076 64.918C425.341 65.1837 425.491 65.544 425.491 65.9197C425.491 66.2954 425.341 66.6558 425.076 66.9215C424.81 67.1871 424.45 67.3364 424.074 67.3364Z" fill="#E8E8E8"/>
<path d="M426.294 75.6131C426.029 75.6132 425.771 75.5307 425.556 75.3771C425.341 75.2235 425.179 75.0064 425.093 74.7563C425.007 74.5062 425.002 74.2355 425.077 73.982C425.153 73.7286 425.306 73.5051 425.514 73.3428L432.428 67.9699C432.706 67.754 432.936 67.4828 433.103 67.1734C433.271 66.864 433.372 66.5232 433.401 66.1726C433.43 65.822 433.385 65.4692 433.271 65.1366C433.156 64.804 432.974 64.4988 432.735 64.2404L426.931 57.9579C426.818 57.8356 426.73 57.6922 426.672 57.5359C426.614 57.3796 426.588 57.2134 426.595 57.047C426.601 56.8805 426.641 56.7169 426.71 56.5656C426.78 56.4143 426.879 56.2783 427.001 56.1652C427.124 56.0521 427.267 55.9643 427.424 55.9066C427.58 55.849 427.746 55.8227 427.913 55.8292C428.079 55.8358 428.243 55.8751 428.394 55.9449C428.545 56.0146 428.681 56.1135 428.794 56.2358L437.414 65.5649C437.533 65.6939 437.624 65.8463 437.682 66.0124C437.739 66.1785 437.761 66.3547 437.747 66.5298C437.732 66.705 437.682 66.8752 437.598 67.0297C437.514 67.1842 437.4 67.3197 437.261 67.4276L427.072 75.3461C426.85 75.5193 426.576 75.6132 426.294 75.6131Z" fill="#E8E8E8"/>
<path d="M395.708 75.6131C395.973 75.6132 396.231 75.5307 396.446 75.3771C396.661 75.2235 396.823 75.0064 396.909 74.7563C396.995 74.5062 397 74.2355 396.925 73.982C396.849 73.7286 396.696 73.5051 396.488 73.3428L389.574 67.9699C389.296 67.754 389.066 67.4828 388.899 67.1734C388.731 66.864 388.63 66.5232 388.601 66.1726C388.572 65.822 388.617 65.4692 388.731 65.1366C388.846 64.804 389.028 64.4988 389.267 64.2404L395.071 57.9579C395.184 57.8356 395.272 57.6922 395.33 57.5359C395.387 57.3796 395.414 57.2134 395.407 57.047C395.401 56.8805 395.361 56.7169 395.292 56.5656C395.222 56.4143 395.123 56.2783 395.001 56.1652C394.878 56.0521 394.735 55.9643 394.578 55.9066C394.422 55.849 394.256 55.8227 394.089 55.8292C393.923 55.8358 393.759 55.8751 393.608 55.9449C393.457 56.0146 393.321 56.1135 393.208 56.2358L384.588 65.5649C384.469 65.6939 384.378 65.8463 384.32 66.0124C384.263 66.1785 384.241 66.3547 384.255 66.5298C384.27 66.705 384.32 66.8752 384.404 67.0297C384.488 67.1842 384.602 67.3197 384.741 67.4276L394.93 75.3461C395.152 75.5193 395.426 75.6132 395.708 75.6131Z" fill="#E8E8E8"/>
<path d="M438.032 124.426H411.032C410.656 124.426 410.296 124.276 410.03 124.011C409.764 123.745 409.615 123.385 409.615 123.009C409.615 122.633 409.764 122.273 410.03 122.007C410.296 121.742 410.656 121.592 411.032 121.592H438.032C438.407 121.592 438.768 121.742 439.033 122.007C439.299 122.273 439.448 122.633 439.448 123.009C439.448 123.385 439.299 123.745 439.033 124.011C438.768 124.276 438.407 124.426 438.032 124.426Z" fill="#E8E8E8"/>
<path d="M442.789 131.434C442.525 131.434 442.267 131.351 442.051 131.198C441.836 131.044 441.674 130.827 441.588 130.577C441.502 130.327 441.497 130.056 441.572 129.803C441.648 129.549 441.801 129.326 442.01 129.163L448.923 123.791C449.201 123.575 449.431 123.303 449.598 122.994C449.766 122.685 449.867 122.344 449.896 121.993C449.925 121.643 449.881 121.29 449.766 120.957C449.652 120.625 449.469 120.319 449.23 120.061L443.426 113.779C443.313 113.656 443.225 113.513 443.167 113.357C443.11 113.2 443.084 113.034 443.09 112.868C443.097 112.701 443.136 112.538 443.206 112.386C443.275 112.235 443.374 112.099 443.497 111.986C443.619 111.873 443.763 111.785 443.919 111.727C444.075 111.67 444.241 111.643 444.408 111.65C444.574 111.656 444.738 111.696 444.889 111.766C445.041 111.835 445.177 111.934 445.29 112.056L453.909 121.386C454.028 121.515 454.12 121.667 454.177 121.833C454.234 121.999 454.256 122.175 454.242 122.35C454.228 122.526 454.177 122.696 454.093 122.85C454.01 123.005 453.895 123.14 453.756 123.248L443.567 131.167C443.345 131.34 443.071 131.434 442.789 131.434Z" fill="#E8E8E8"/>
<path d="M395.708 131.434C395.973 131.434 396.231 131.351 396.446 131.198C396.661 131.044 396.823 130.827 396.909 130.577C396.995 130.327 397 130.056 396.925 129.803C396.849 129.549 396.696 129.326 396.488 129.163L389.574 123.791C389.296 123.575 389.066 123.303 388.899 122.994C388.731 122.685 388.63 122.344 388.601 121.993C388.572 121.643 388.617 121.29 388.731 120.957C388.846 120.625 389.028 120.319 389.267 120.061L395.071 113.779C395.3 113.531 395.42 113.204 395.407 112.868C395.394 112.531 395.248 112.214 395.001 111.986C394.753 111.758 394.426 111.637 394.089 111.65C393.753 111.663 393.436 111.809 393.208 112.056L384.588 121.386C384.469 121.515 384.378 121.667 384.32 121.833C384.263 121.999 384.241 122.175 384.255 122.35C384.27 122.526 384.32 122.696 384.404 122.85C384.488 123.005 384.602 123.14 384.741 123.248L394.93 131.167C395.152 131.34 395.426 131.434 395.708 131.434Z" fill="#E8E8E8"/>
<path d="M398.118 127.464L403.793 114.484C403.945 114.141 404.226 113.873 404.575 113.737C404.924 113.601 405.313 113.609 405.656 113.759C406 113.909 406.27 114.189 406.407 114.538C406.544 114.886 406.538 115.275 406.39 115.619L400.714 128.599C400.64 128.771 400.533 128.926 400.399 129.056C400.265 129.185 400.107 129.288 399.933 129.356C399.759 129.424 399.574 129.458 399.387 129.455C399.201 129.451 399.017 129.411 398.846 129.336C398.675 129.261 398.52 129.154 398.391 129.019C398.262 128.884 398.16 128.726 398.093 128.552C398.025 128.378 397.992 128.192 397.997 128.006C398.001 127.819 398.042 127.635 398.118 127.464Z" fill="#E8E8E8"/>
</g>
<defs>
<clipPath id="clip0_18_24">
<rect width="672" height="425" fill="white"/>
</clipPath>
</defs>
</svg>
