<svg width="688" height="500" viewBox="0 0 688 500" fill="none" xmlns="http://www.w3.org/2000/svg">
<g clip-path="url(#clip0_12_2)">
<path d="M400.759 88.1441C413.653 88.1441 424.106 77.6993 424.106 64.8148C424.106 51.9304 413.653 41.4855 400.759 41.4855C387.865 41.4855 377.412 51.9304 377.412 64.8148C377.412 77.6993 387.865 88.1441 400.759 88.1441Z" fill="#2DC18E"/>
<path d="M581.871 434.378C616.574 407.966 633.15 363.583 622.773 321.245C622.515 320.193 622.243 319.143 621.956 318.096C615.077 292.964 598.057 269.079 573.252 261.049C552.424 254.306 529.689 259.491 507.961 256.81C465.306 251.547 432.237 217.06 408.968 180.953C385.7 144.846 367.817 104.429 336.898 74.5989C285.934 25.4293 202.798 14.843 139.609 46.8488C76.4202 78.8546 36.1697 149.862 37.8863 220.63C39.6029 291.398 81.647 359.057 142.706 394.954C165.136 408.142 191.079 417.484 216.897 414.215C239.3 411.378 259.655 399.35 281.952 395.779C317.008 390.165 351.841 406.003 382.161 424.459C412.482 442.914 441.77 464.79 476.225 473.346C509.681 481.654 551.13 457.774 581.871 434.378Z" fill="#2DC18E"/>
<path d="M532.011 48.3348C531.25 47.828 530.481 47.3475 529.72 46.8582C507.73 32.8049 484.16 21.3881 459.497 12.8438L453.778 91.6719H417.525V1.33675C415.243 0.864933 412.943 0.41933 410.644 -6.10352e-05V91.6719H367.562C343.845 91.6719 321.099 82.2576 304.328 65.5C287.558 48.7424 278.136 26.0142 278.136 2.31543V2.31535C275.828 2.81338 273.537 3.34636 271.246 3.91428V91.6719H236.156L230.708 16.5048C205.363 26.2174 181.302 38.99 159.06 54.5383C158.675 54.8004 158.29 55.0713 157.914 55.3334C155.982 56.6877 154.076 58.0682 152.178 59.4662V360.196H255.594L253.767 334.901L243.711 196.022H446.215L436.159 334.901L434.331 360.196H536.602V51.3754C535.08 50.3444 533.55 49.3309 532.011 48.3348ZM271.246 173.086H242.05L236.654 98.5569H271.246V173.086ZM410.644 173.086H361.607V171.61C361.607 170.9 361.467 170.197 361.195 169.541C360.923 168.886 360.524 168.29 360.021 167.788C359.519 167.287 358.922 166.889 358.265 166.618C357.609 166.348 356.905 166.209 356.194 166.21H334.876C334.167 166.21 333.464 166.349 332.808 166.62C332.152 166.892 331.557 167.289 331.055 167.791C330.553 168.292 330.155 168.888 329.883 169.543C329.612 170.198 329.472 170.9 329.473 171.61V173.086H278.136V98.5569H410.644V173.086ZM417.525 173.086V98.5569H453.28L447.885 173.086H417.525Z" fill="#4B575B"/>
<path d="M0 379.454C7.59619 388.448 15.8123 396.9 24.5883 404.748L663.412 405.622C672.188 397.773 680.404 389.321 688 380.328L0 379.454Z" fill="#4B575B"/>
<path d="M433.207 298.459V373.342C433.208 374.296 433.587 375.211 434.263 375.886C434.938 376.561 435.854 376.94 436.809 376.941H547.862C548.817 376.94 549.733 376.561 550.408 375.886C551.083 375.211 551.463 374.296 551.464 373.342V298.459C551.462 297.506 551.081 296.592 550.406 295.918C549.731 295.245 548.816 294.866 547.862 294.864H436.809C435.854 294.866 434.94 295.245 434.264 295.918C433.589 296.592 433.209 297.506 433.207 298.459Z" fill="#4B575B"/>
<path d="M435.812 299.391V372.418C435.813 372.928 436.016 373.417 436.377 373.777C436.738 374.138 437.227 374.341 437.737 374.341H546.938C547.448 374.341 547.937 374.138 548.298 373.777C548.659 373.417 548.862 372.928 548.862 372.418V299.391C548.862 298.881 548.66 298.391 548.299 298.03C547.938 297.668 547.448 297.465 546.938 297.464H437.737C437.226 297.465 436.737 297.668 436.376 298.03C436.015 298.391 435.812 298.881 435.812 299.391Z" fill="white"/>
<path d="M430.884 387.946C431.088 388.201 431.346 388.406 431.641 388.547C431.935 388.687 432.257 388.76 432.584 388.758H551.496C551.821 388.758 552.142 388.685 552.436 388.545C552.729 388.405 552.988 388.201 553.192 387.949C553.397 387.697 553.543 387.402 553.62 387.086C553.696 386.77 553.701 386.441 553.635 386.123L551.789 377.362C551.712 377.005 551.548 376.672 551.31 376.395C551.072 376.117 550.768 375.904 550.426 375.774C550.179 375.677 549.916 375.627 549.65 375.627H434.422C434.156 375.627 433.893 375.677 433.646 375.774C433.304 375.904 433 376.117 432.762 376.395C432.525 376.672 432.36 377.005 432.283 377.362L430.437 386.123C430.372 386.441 430.378 386.77 430.455 387.085C430.532 387.4 430.679 387.694 430.884 387.946Z" fill="#2F2E41"/>
<path d="M545.57 379.401H548.378C548.614 379.401 548.805 379.21 548.805 378.975V377.632C548.805 377.396 548.614 377.205 548.378 377.205H545.57C545.334 377.205 545.143 377.396 545.143 377.632V378.975C545.143 379.21 545.334 379.401 545.57 379.401Z" fill="#4B575B"/>
<path d="M538.245 379.401H541.054C541.289 379.401 541.48 379.21 541.48 378.975V377.632C541.48 377.396 541.289 377.205 541.054 377.205H538.245C538.009 377.205 537.818 377.396 537.818 377.632V378.975C537.818 379.21 538.009 379.401 538.245 379.401Z" fill="#4B575B"/>
<path d="M530.92 379.401H533.729C533.964 379.401 534.156 379.21 534.156 378.975V377.632C534.156 377.396 533.964 377.205 533.729 377.205H530.92C530.684 377.205 530.493 377.396 530.493 377.632V378.975C530.493 379.21 530.684 379.401 530.92 379.401Z" fill="#4B575B"/>
<path d="M523.595 379.401H526.404C526.64 379.401 526.831 379.21 526.831 378.975V377.632C526.831 377.396 526.64 377.205 526.404 377.205H523.595C523.359 377.205 523.168 377.396 523.168 377.632V378.975C523.168 379.21 523.359 379.401 523.595 379.401Z" fill="#4B575B"/>
<path d="M516.27 379.401H519.079C519.315 379.401 519.506 379.21 519.506 378.975V377.632C519.506 377.396 519.315 377.205 519.079 377.205H516.27C516.035 377.205 515.843 377.396 515.843 377.632V378.975C515.843 379.21 516.035 379.401 516.27 379.401Z" fill="#4B575B"/>
<path d="M508.945 379.401H511.754C511.99 379.401 512.181 379.21 512.181 378.975V377.632C512.181 377.396 511.99 377.205 511.754 377.205H508.945C508.71 377.205 508.519 377.396 508.519 377.632V378.975C508.519 379.21 508.71 379.401 508.945 379.401Z" fill="#4B575B"/>
<path d="M501.62 379.401H504.429C504.665 379.401 504.856 379.21 504.856 378.975V377.632C504.856 377.396 504.665 377.205 504.429 377.205H501.62C501.385 377.205 501.194 377.396 501.194 377.632V378.975C501.194 379.21 501.385 379.401 501.62 379.401Z" fill="#4B575B"/>
<path d="M494.296 379.401H497.104C497.34 379.401 497.531 379.21 497.531 378.975V377.632C497.531 377.396 497.34 377.205 497.104 377.205H494.296C494.06 377.205 493.869 377.396 493.869 377.632V378.975C493.869 379.21 494.06 379.401 494.296 379.401Z" fill="#4B575B"/>
<path d="M486.971 379.401H489.779C490.015 379.401 490.206 379.21 490.206 378.975V377.632C490.206 377.396 490.015 377.205 489.779 377.205H486.971C486.735 377.205 486.544 377.396 486.544 377.632V378.975C486.544 379.21 486.735 379.401 486.971 379.401Z" fill="#4B575B"/>
<path d="M479.646 379.401H482.455C482.69 379.401 482.881 379.21 482.881 378.975V377.632C482.881 377.396 482.69 377.205 482.455 377.205H479.646C479.41 377.205 479.219 377.396 479.219 377.632V378.975C479.219 379.21 479.41 379.401 479.646 379.401Z" fill="#4B575B"/>
<path d="M472.321 379.401H475.13C475.365 379.401 475.557 379.21 475.557 378.975V377.632C475.557 377.396 475.365 377.205 475.13 377.205H472.321C472.085 377.205 471.894 377.396 471.894 377.632V378.975C471.894 379.21 472.085 379.401 472.321 379.401Z" fill="#4B575B"/>
<path d="M464.996 379.401H467.805C468.041 379.401 468.232 379.21 468.232 378.975V377.632C468.232 377.396 468.041 377.205 467.805 377.205H464.996C464.76 377.205 464.569 377.396 464.569 377.632V378.975C464.569 379.21 464.76 379.401 464.996 379.401Z" fill="#4B575B"/>
<path d="M457.671 379.401H460.48C460.716 379.401 460.907 379.21 460.907 378.975V377.632C460.907 377.396 460.716 377.205 460.48 377.205H457.671C457.435 377.205 457.244 377.396 457.244 377.632V378.975C457.244 379.21 457.435 379.401 457.671 379.401Z" fill="#4B575B"/>
<path d="M450.346 379.401H453.155C453.391 379.401 453.582 379.21 453.582 378.975V377.632C453.582 377.396 453.391 377.205 453.155 377.205H450.346C450.111 377.205 449.919 377.396 449.919 377.632V378.975C449.919 379.21 450.111 379.401 450.346 379.401Z" fill="#4B575B"/>
<path d="M443.021 379.401H445.83C446.066 379.401 446.257 379.21 446.257 378.975V377.632C446.257 377.396 446.066 377.205 445.83 377.205H443.021C442.786 377.205 442.595 377.396 442.595 377.632V378.975C442.595 379.21 442.786 379.401 443.021 379.401Z" fill="#4B575B"/>
<path d="M435.697 379.401H438.505C438.741 379.401 438.932 379.21 438.932 378.975V377.632C438.932 377.396 438.741 377.205 438.505 377.205H435.697C435.461 377.205 435.27 377.396 435.27 377.632V378.975C435.27 379.21 435.461 379.401 435.697 379.401Z" fill="#4B575B"/>
<path d="M545.656 383.061H548.465C548.701 383.061 548.892 382.87 548.892 382.634V381.291C548.892 381.056 548.701 380.865 548.465 380.865H545.656C545.421 380.865 545.229 381.056 545.229 381.291V382.634C545.229 382.87 545.421 383.061 545.656 383.061Z" fill="#4B575B"/>
<path d="M538.331 383.061H541.14C541.376 383.061 541.567 382.87 541.567 382.634V381.291C541.567 381.056 541.376 380.865 541.14 380.865H538.331C538.096 380.865 537.905 381.056 537.905 381.291V382.634C537.905 382.87 538.096 383.061 538.331 383.061Z" fill="#4B575B"/>
<path d="M531.007 383.061H533.815C534.051 383.061 534.242 382.87 534.242 382.634V381.291C534.242 381.056 534.051 380.865 533.815 380.865H531.007C530.771 380.865 530.58 381.056 530.58 381.291V382.634C530.58 382.87 530.771 383.061 531.007 383.061Z" fill="#4B575B"/>
<path d="M523.682 383.061H526.49C526.726 383.061 526.917 382.87 526.917 382.634V381.291C526.917 381.056 526.726 380.865 526.49 380.865H523.682C523.446 380.865 523.255 381.056 523.255 381.291V382.634C523.255 382.87 523.446 383.061 523.682 383.061Z" fill="#4B575B"/>
<path d="M516.357 383.061H519.165C519.401 383.061 519.592 382.87 519.592 382.634V381.291C519.592 381.056 519.401 380.865 519.165 380.865H516.357C516.121 380.865 515.93 381.056 515.93 381.291V382.634C515.93 382.87 516.121 383.061 516.357 383.061Z" fill="#4B575B"/>
<path d="M509.032 383.061H511.841C512.076 383.061 512.267 382.87 512.267 382.634V381.291C512.267 381.056 512.076 380.865 511.841 380.865H509.032C508.796 380.865 508.605 381.056 508.605 381.291V382.634C508.605 382.87 508.796 383.061 509.032 383.061Z" fill="#4B575B"/>
<path d="M501.707 383.061H504.516C504.751 383.061 504.943 382.87 504.943 382.634V381.291C504.943 381.056 504.751 380.865 504.516 380.865H501.707C501.471 380.865 501.28 381.056 501.28 381.291V382.634C501.28 382.87 501.471 383.061 501.707 383.061Z" fill="#4B575B"/>
<path d="M494.382 383.061H497.191C497.427 383.061 497.618 382.87 497.618 382.634V381.291C497.618 381.056 497.427 380.865 497.191 380.865H494.382C494.146 380.865 493.955 381.056 493.955 381.291V382.634C493.955 382.87 494.146 383.061 494.382 383.061Z" fill="#4B575B"/>
<path d="M487.057 383.061H489.866C490.102 383.061 490.293 382.87 490.293 382.634V381.291C490.293 381.056 490.102 380.865 489.866 380.865H487.057C486.822 380.865 486.63 381.056 486.63 381.291V382.634C486.63 382.87 486.822 383.061 487.057 383.061Z" fill="#4B575B"/>
<path d="M479.732 383.061H482.541C482.777 383.061 482.968 382.87 482.968 382.634V381.291C482.968 381.056 482.777 380.865 482.541 380.865H479.732C479.497 380.865 479.306 381.056 479.306 381.291V382.634C479.306 382.87 479.497 383.061 479.732 383.061Z" fill="#4B575B"/>
<path d="M472.408 383.061H475.216C475.452 383.061 475.643 382.87 475.643 382.634V381.291C475.643 381.056 475.452 380.865 475.216 380.865H472.408C472.172 380.865 471.981 381.056 471.981 381.291V382.634C471.981 382.87 472.172 383.061 472.408 383.061Z" fill="#4B575B"/>
<path d="M465.083 383.061H467.891C468.127 383.061 468.318 382.87 468.318 382.634V381.291C468.318 381.056 468.127 380.865 467.891 380.865H465.083C464.847 380.865 464.656 381.056 464.656 381.291V382.634C464.656 382.87 464.847 383.061 465.083 383.061Z" fill="#4B575B"/>
<path d="M457.758 383.061H460.566C460.802 383.061 460.993 382.87 460.993 382.634V381.291C460.993 381.056 460.802 380.865 460.566 380.865H457.758C457.522 380.865 457.331 381.056 457.331 381.291V382.634C457.331 382.87 457.522 383.061 457.758 383.061Z" fill="#4B575B"/>
<path d="M450.433 383.061H453.242C453.477 383.061 453.668 382.87 453.668 382.634V381.291C453.668 381.056 453.477 380.865 453.242 380.865H450.433C450.197 380.865 450.006 381.056 450.006 381.291V382.634C450.006 382.87 450.197 383.061 450.433 383.061Z" fill="#4B575B"/>
<path d="M443.108 383.061H445.917C446.152 383.061 446.344 382.87 446.344 382.634V381.291C446.344 381.056 446.152 380.865 445.917 380.865H443.108C442.872 380.865 442.681 381.056 442.681 381.291V382.634C442.681 382.87 442.872 383.061 443.108 383.061Z" fill="#4B575B"/>
<path d="M435.783 383.061H438.592C438.828 383.061 439.019 382.87 439.019 382.634V381.291C439.019 381.056 438.828 380.865 438.592 380.865H435.783C435.547 380.865 435.356 381.056 435.356 381.291V382.634C435.356 382.87 435.547 383.061 435.783 383.061Z" fill="#4B575B"/>
<path d="M484.86 387.452H513.306C513.541 387.452 513.732 387.261 513.732 387.026V385.683C513.732 385.447 513.541 385.256 513.306 385.256H484.86C484.624 385.256 484.433 385.447 484.433 385.683V387.026C484.433 387.261 484.624 387.452 484.86 387.452Z" fill="#4B575B"/>
<path d="M454.722 313.44H452.236C451.482 313.44 450.871 314.051 450.871 314.804C450.871 315.557 451.482 316.168 452.236 316.168H454.722C455.476 316.168 456.087 315.557 456.087 314.804C456.087 314.051 455.476 313.44 454.722 313.44Z" fill="white"/>
<path d="M483.161 313.44H480.674C479.92 313.44 479.309 314.051 479.309 314.804C479.309 315.557 479.92 316.168 480.674 316.168H483.161C483.915 316.168 484.526 315.557 484.526 314.804C484.526 314.051 483.915 313.44 483.161 313.44Z" fill="white"/>
<path d="M491.218 313.44H488.732C487.978 313.44 487.367 314.051 487.367 314.804C487.367 315.557 487.978 316.168 488.732 316.168H491.218C491.972 316.168 492.583 315.557 492.583 314.804C492.583 314.051 491.972 313.44 491.218 313.44Z" fill="white"/>
<path d="M475.425 313.213H459.971C459.217 313.213 458.606 313.823 458.606 314.577C458.606 315.33 459.217 315.941 459.971 315.941H475.425C476.179 315.941 476.79 315.33 476.79 314.577C476.79 313.823 476.179 313.213 475.425 313.213Z" fill="white"/>
<path d="M513.343 313.213H497.889C497.135 313.213 496.524 313.823 496.524 314.577C496.524 315.33 497.135 315.941 497.889 315.941H513.343C514.097 315.941 514.708 315.33 514.708 314.577C514.708 313.823 514.097 313.213 513.343 313.213Z" fill="white"/>
<path d="M462.306 319.597H459.819C459.065 319.597 458.454 320.208 458.454 320.961C458.454 321.714 459.065 322.325 459.819 322.325H462.306C463.06 322.325 463.671 321.714 463.671 320.961C463.671 320.208 463.06 319.597 462.306 319.597Z" fill="white"/>
<path d="M490.744 319.597H488.258C487.504 319.597 486.893 320.208 486.893 320.961C486.893 321.714 487.504 322.325 488.258 322.325H490.744C491.498 322.325 492.109 321.714 492.109 320.961C492.109 320.208 491.498 319.597 490.744 319.597Z" fill="white"/>
<path d="M498.802 319.597H496.315C495.561 319.597 494.95 320.208 494.95 320.961C494.95 321.714 495.561 322.325 496.315 322.325H498.802C499.556 322.325 500.167 321.714 500.167 320.961C500.167 320.208 499.556 319.597 498.802 319.597Z" fill="white"/>
<path d="M483.009 319.37H467.555C466.801 319.37 466.19 319.98 466.19 320.734C466.19 321.487 466.801 322.098 467.555 322.098H483.009C483.763 322.098 484.374 321.487 484.374 320.734C484.374 319.98 483.763 319.37 483.009 319.37Z" fill="white"/>
<path d="M520.927 319.37H505.472C504.719 319.37 504.107 319.98 504.107 320.734C504.107 321.487 504.719 322.098 505.472 322.098H520.927C521.681 322.098 522.292 321.487 522.292 320.734C522.292 319.98 521.681 319.37 520.927 319.37Z" fill="white"/>
<path d="M469.889 325.754H467.403C466.649 325.754 466.038 326.365 466.038 327.118C466.038 327.871 466.649 328.482 467.403 328.482H469.889C470.643 328.482 471.254 327.871 471.254 327.118C471.254 326.365 470.643 325.754 469.889 325.754Z" fill="white"/>
<path d="M498.328 325.754H495.841C495.087 325.754 494.476 326.365 494.476 327.118C494.476 327.871 495.087 328.482 495.841 328.482H498.328C499.082 328.482 499.693 327.871 499.693 327.118C499.693 326.365 499.082 325.754 498.328 325.754Z" fill="white"/>
<path d="M506.385 325.754H503.899C503.145 325.754 502.534 326.365 502.534 327.118C502.534 327.871 503.145 328.482 503.899 328.482H506.385C507.139 328.482 507.75 327.871 507.75 327.118C507.75 326.365 507.139 325.754 506.385 325.754Z" fill="white"/>
<path d="M490.593 325.526H475.138C474.384 325.526 473.773 326.137 473.773 326.89C473.773 327.644 474.384 328.254 475.138 328.254H490.593C491.346 328.254 491.958 327.644 491.958 326.89C491.958 326.137 491.346 325.526 490.593 325.526Z" fill="white"/>
<path d="M528.51 325.526H513.056C512.302 325.526 511.691 326.137 511.691 326.89C511.691 327.644 512.302 328.254 513.056 328.254H528.51C529.264 328.254 529.875 327.644 529.875 326.89C529.875 326.137 529.264 325.526 528.51 325.526Z" fill="white"/>
<path d="M477.473 331.911H474.987C474.233 331.911 473.621 332.521 473.621 333.275C473.621 334.028 474.233 334.639 474.987 334.639H477.473C478.227 334.639 478.838 334.028 478.838 333.275C478.838 332.521 478.227 331.911 477.473 331.911Z" fill="white"/>
<path d="M505.911 331.911H503.425C502.671 331.911 502.06 332.521 502.06 333.275C502.06 334.028 502.671 334.639 503.425 334.639H505.911C506.665 334.639 507.276 334.028 507.276 333.275C507.276 332.521 506.665 331.911 505.911 331.911Z" fill="white"/>
<path d="M513.969 331.911H511.482C510.728 331.911 510.117 332.521 510.117 333.275C510.117 334.028 510.728 334.639 511.482 334.639H513.969C514.723 334.639 515.334 334.028 515.334 333.275C515.334 332.521 514.723 331.911 513.969 331.911Z" fill="white"/>
<path d="M498.176 331.683H482.722C481.968 331.683 481.357 332.294 481.357 333.047C481.357 333.801 481.968 334.411 482.722 334.411H498.176C498.93 334.411 499.541 333.801 499.541 333.047C499.541 332.294 498.93 331.683 498.176 331.683Z" fill="white"/>
<path d="M483.161 356.393H480.674C479.92 356.393 479.309 357.004 479.309 357.757C479.309 358.51 479.92 359.121 480.674 359.121H483.161C483.915 359.121 484.526 358.51 484.526 357.757C484.526 357.004 483.915 356.393 483.161 356.393Z" fill="white"/>
<path d="M491.218 356.393H488.732C487.978 356.393 487.367 357.004 487.367 357.757C487.367 358.51 487.978 359.121 488.732 359.121H491.218C491.972 359.121 492.583 358.51 492.583 357.757C492.583 357.004 491.972 356.393 491.218 356.393Z" fill="white"/>
<path d="M513.343 356.621H497.889C497.135 356.621 496.524 357.231 496.524 357.985C496.524 358.738 497.135 359.349 497.889 359.349H513.343C514.097 359.349 514.708 358.738 514.708 357.985C514.708 357.231 514.097 356.621 513.343 356.621Z" fill="white"/>
<path d="M454.722 356.393H452.236C451.482 356.393 450.871 357.004 450.871 357.757C450.871 358.51 451.482 359.121 452.236 359.121H454.722C455.476 359.121 456.087 358.51 456.087 357.757C456.087 357.004 455.476 356.393 454.722 356.393Z" fill="white"/>
<path d="M475.425 356.621H459.971C459.217 356.621 458.606 357.231 458.606 357.985C458.606 358.738 459.217 359.349 459.971 359.349H475.425C476.179 359.349 476.79 358.738 476.79 357.985C476.79 357.231 476.179 356.621 475.425 356.621Z" fill="white"/>
<path d="M462.306 350.236H459.819C459.065 350.236 458.454 350.847 458.454 351.6C458.454 352.354 459.065 352.964 459.819 352.964H462.306C463.06 352.964 463.671 352.354 463.671 351.6C463.671 350.847 463.06 350.236 462.306 350.236Z" fill="white"/>
<path d="M490.744 350.236H488.258C487.504 350.236 486.893 350.847 486.893 351.6C486.893 352.354 487.504 352.964 488.258 352.964H490.744C491.498 352.964 492.109 352.354 492.109 351.6C492.109 350.847 491.498 350.236 490.744 350.236Z" fill="white"/>
<path d="M498.802 350.236H496.315C495.561 350.236 494.95 350.847 494.95 351.6C494.95 352.354 495.561 352.964 496.315 352.964H498.802C499.556 352.964 500.167 352.354 500.167 351.6C500.167 350.847 499.556 350.236 498.802 350.236Z" fill="white"/>
<path d="M483.009 350.464H467.555C466.801 350.464 466.19 351.074 466.19 351.828C466.19 352.581 466.801 353.192 467.555 353.192H483.009C483.763 353.192 484.374 352.581 484.374 351.828C484.374 351.074 483.763 350.464 483.009 350.464Z" fill="white"/>
<path d="M469.889 344.079H467.403C466.649 344.079 466.038 344.69 466.038 345.443C466.038 346.197 466.649 346.807 467.403 346.807H469.889C470.643 346.807 471.254 346.197 471.254 345.443C471.254 344.69 470.643 344.079 469.889 344.079Z" fill="white"/>
<path d="M498.328 344.079H495.841C495.087 344.079 494.476 344.69 494.476 345.443C494.476 346.197 495.087 346.807 495.841 346.807H498.328C499.082 346.807 499.693 346.197 499.693 345.443C499.693 344.69 499.082 344.079 498.328 344.079Z" fill="white"/>
<path d="M506.385 344.079H503.899C503.145 344.079 502.534 344.69 502.534 345.443C502.534 346.197 503.145 346.807 503.899 346.807H506.385C507.139 346.807 507.75 346.197 507.75 345.443C507.75 344.69 507.139 344.079 506.385 344.079Z" fill="white"/>
<path d="M490.593 344.307H475.138C474.384 344.307 473.773 344.917 473.773 345.671C473.773 346.424 474.384 347.035 475.138 347.035H490.593C491.346 347.035 491.958 346.424 491.958 345.671C491.958 344.917 491.346 344.307 490.593 344.307Z" fill="white"/>
<path d="M477.473 337.922H474.987C474.233 337.922 473.621 338.533 473.621 339.286C473.621 340.04 474.233 340.65 474.987 340.65H477.473C478.227 340.65 478.838 340.04 478.838 339.286C478.838 338.533 478.227 337.922 477.473 337.922Z" fill="white"/>
<path d="M505.911 337.922H503.425C502.671 337.922 502.06 338.533 502.06 339.286C502.06 340.04 502.671 340.65 503.425 340.65H505.911C506.665 340.65 507.276 340.04 507.276 339.286C507.276 338.533 506.665 337.922 505.911 337.922Z" fill="white"/>
<path d="M513.969 337.922H511.482C510.728 337.922 510.117 338.533 510.117 339.286C510.117 340.04 510.728 340.65 511.482 340.65H513.969C514.723 340.65 515.334 340.04 515.334 339.286C515.334 338.533 514.723 337.922 513.969 337.922Z" fill="white"/>
<path d="M498.176 338.15H482.722C481.968 338.15 481.357 338.761 481.357 339.514C481.357 340.267 481.968 340.878 482.722 340.878H498.176C498.93 340.878 499.541 340.267 499.541 339.514C499.541 338.761 498.93 338.15 498.176 338.15Z" fill="white"/>
<path d="M441.503 428.55L429.83 410.112L466.469 380.927L481.592 364.186C483.557 362.011 486.059 360.389 488.847 359.483C491.636 358.576 494.613 358.417 497.483 359.021C500.352 359.625 503.013 360.971 505.198 362.924C507.384 364.877 509.019 367.369 509.939 370.151C511.302 374.274 511.009 378.765 509.121 382.676C507.234 386.587 503.899 389.612 499.822 391.113L475.908 399.916L441.503 428.55Z" fill="#FFB6B6"/>
<path d="M167.615 294.868V384.478H230.441V294.868C230.442 294.223 230.236 293.595 229.854 293.076C229.471 292.558 228.932 292.175 228.316 291.985C228.026 291.889 227.721 291.841 227.415 291.845H170.649C170.251 291.844 169.857 291.922 169.489 292.073C169.121 292.225 168.787 292.447 168.505 292.728C168.223 293.009 167.999 293.342 167.847 293.709C167.694 294.077 167.615 294.47 167.615 294.868ZM192.133 325.658C192.15 323.892 192.863 322.203 194.119 320.959C195.375 319.716 197.072 319.018 198.84 319.018C200.608 319.018 202.304 319.716 203.56 320.959C204.816 322.203 205.53 323.892 205.547 325.658V336.056C205.538 337.827 204.827 339.523 203.57 340.772C202.313 342.022 200.613 342.723 198.84 342.723C197.067 342.723 195.366 342.022 194.11 340.772C192.853 339.523 192.142 337.827 192.133 336.056V325.658Z" fill="#2F2E41"/>
<path d="M167.423 381.612V390.253C167.424 390.701 167.602 391.13 167.918 391.447C168.234 391.765 168.662 391.945 169.11 391.948H228.946C229.394 391.946 229.823 391.766 230.14 391.449C230.456 391.131 230.633 390.701 230.633 390.253V381.612H167.423Z" fill="#4B575B"/>
<path d="M68.7808 159.859V323.474C68.7824 325.559 69.6121 327.558 71.0876 329.032C72.563 330.507 74.5638 331.336 76.6504 331.337H319.298C321.385 331.336 323.385 330.507 324.861 329.032C326.336 327.558 327.166 325.559 327.168 323.474V159.859C327.163 157.776 326.332 155.779 324.857 154.307C323.382 152.835 321.383 152.007 319.298 152.004H76.6504C74.5656 152.007 72.5668 152.835 71.0917 154.307C69.6167 155.779 68.7857 157.776 68.7808 159.859Z" fill="#4B575B"/>
<path d="M74.4731 161.895V321.455C74.4751 322.569 74.9188 323.637 75.7071 324.425C76.4955 325.213 77.5642 325.656 78.679 325.658H317.278C318.393 325.656 319.462 325.213 320.25 324.425C321.038 323.637 321.482 322.569 321.484 321.455V161.895C321.484 160.779 321.041 159.709 320.253 158.92C319.464 158.13 318.394 157.686 317.278 157.683H78.679C77.5628 157.686 76.4931 158.13 75.7046 158.92C74.9161 159.709 74.4733 160.779 74.4731 161.895Z" fill="white"/>
<path d="M118.753 391.363C118.996 391.667 119.305 391.912 119.656 392.08C120.007 392.248 120.392 392.335 120.782 392.333H262.733C263.121 392.332 263.504 392.245 263.855 392.078C264.205 391.911 264.514 391.668 264.758 391.367C265.003 391.066 265.177 390.714 265.268 390.337C265.36 389.96 265.366 389.567 265.286 389.187L263.082 378.729C262.991 378.302 262.795 377.905 262.51 377.574C262.226 377.243 261.864 376.988 261.456 376.833C261.161 376.717 260.846 376.658 260.529 376.658H122.976C122.659 376.658 122.345 376.717 122.05 376.833C121.642 376.988 121.279 377.243 120.995 377.574C120.711 377.905 120.514 378.302 120.423 378.729L118.22 389.187C118.141 389.567 118.148 389.959 118.241 390.335C118.333 390.711 118.508 391.063 118.753 391.363Z" fill="#2F2E41"/>
<path d="M309.535 179.663H86.2786C86.0465 179.658 85.8257 179.563 85.6634 179.397C85.5011 179.231 85.4103 179.008 85.4103 178.776C85.4103 178.544 85.5011 178.322 85.6634 178.156C85.8257 177.99 86.0465 177.894 86.2786 177.889H309.535C309.767 177.894 309.988 177.99 310.15 178.156C310.312 178.322 310.403 178.544 310.403 178.776C310.403 179.008 310.312 179.231 310.15 179.397C309.988 179.563 309.767 179.658 309.535 179.663Z" fill="#4B575B"/>
<path d="M101.476 173.36C104.35 173.36 106.679 170.98 106.679 168.045C106.679 165.109 104.35 162.73 101.476 162.73C98.6024 162.73 96.2729 165.109 96.2729 168.045C96.2729 170.98 98.6024 173.36 101.476 173.36Z" fill="#4B575B"/>
<path d="M119.45 173.36C122.324 173.36 124.653 170.98 124.653 168.045C124.653 165.109 122.324 162.73 119.45 162.73C116.577 162.73 114.247 165.109 114.247 168.045C114.247 170.98 116.577 173.36 119.45 173.36Z" fill="#4B575B"/>
<path d="M137.425 173.36C140.298 173.36 142.628 170.98 142.628 168.045C142.628 165.109 140.298 162.73 137.425 162.73C134.551 162.73 132.221 165.109 132.221 168.045C132.221 170.98 134.551 173.36 137.425 173.36Z" fill="#4B575B"/>
<path d="M298.711 164.044H285.945C285.693 164.05 285.453 164.154 285.276 164.335C285.1 164.515 285.001 164.757 285.001 165.009C285.001 165.262 285.1 165.504 285.276 165.684C285.453 165.865 285.693 165.969 285.945 165.975H298.711C298.965 165.971 299.208 165.868 299.386 165.687C299.564 165.507 299.664 165.263 299.664 165.009C299.664 164.756 299.564 164.512 299.386 164.331C299.208 164.151 298.965 164.048 298.711 164.044Z" fill="#4B575B"/>
<path d="M298.711 167.67H285.945C285.692 167.676 285.452 167.78 285.275 167.96C285.099 168.141 285 168.383 285 168.635C285 168.888 285.099 169.13 285.275 169.311C285.452 169.491 285.692 169.595 285.945 169.601H298.711C298.966 169.598 299.208 169.495 299.387 169.314C299.566 169.133 299.666 168.89 299.666 168.635C299.666 168.381 299.566 168.138 299.387 167.957C299.208 167.776 298.966 167.673 298.711 167.67Z" fill="#4B575B"/>
<path d="M298.711 171.296H285.945C285.693 171.302 285.453 171.406 285.276 171.587C285.1 171.767 285.001 172.009 285.001 172.261C285.001 172.514 285.1 172.756 285.276 172.936C285.453 173.117 285.693 173.221 285.945 173.227H298.711C298.965 173.223 299.208 173.12 299.386 172.939C299.564 172.759 299.664 172.515 299.664 172.261C299.664 172.008 299.564 171.764 299.386 171.583C299.208 171.403 298.965 171.299 298.711 171.296Z" fill="#4B575B"/>
<path d="M606.484 385.404C606.869 386.525 607.6 387.495 608.572 388.175C609.543 388.855 610.705 389.21 611.891 389.188L635.055 388.593C636.25 388.57 637.405 388.161 638.347 387.427C639.29 386.694 639.97 385.675 640.285 384.524L643.563 349.498C644.726 350.025 645.992 350.285 647.269 350.259C648.378 350.231 649.471 349.986 650.485 349.536C651.498 349.086 652.414 348.441 653.178 347.638C653.943 346.834 654.542 345.889 654.94 344.854C655.339 343.82 655.53 342.717 655.502 341.609C655.474 340.5 655.228 339.408 654.778 338.395C654.328 337.382 653.682 336.467 652.879 335.703C652.075 334.94 651.128 334.341 650.093 333.943C649.057 333.545 647.954 333.354 646.845 333.382C646.335 333.38 645.826 333.433 645.327 333.539C644.784 332.953 644.124 332.486 643.39 332.17C642.656 331.853 641.864 331.694 641.065 331.702L605.432 332.621C605.137 332.632 604.843 332.669 604.553 332.73C603.772 332.876 603.031 333.187 602.38 333.643C601.729 334.099 601.183 334.688 600.779 335.373C600.376 336.057 600.123 336.82 600.039 337.609C599.955 338.399 600.041 339.198 600.292 339.951L606.484 385.404ZM644.235 347.12L646.568 338.774C646.833 337.809 646.839 336.792 646.586 335.825C646.699 335.825 646.799 335.771 646.912 335.771C648.511 335.738 650.059 336.34 651.214 337.445C652.37 338.55 653.04 340.068 653.078 341.666C653.115 343.264 652.517 344.812 651.414 345.97C650.311 347.128 648.794 347.802 647.195 347.843C646.161 347.876 645.138 347.626 644.235 347.12Z" fill="#2F2E41"/>
<path d="M604.553 332.73C605.312 337.068 613.847 340.117 624.11 339.587C633.547 339.152 641.264 335.841 642.677 331.917C642.154 331.762 641.61 331.69 641.065 331.702L605.432 332.621C605.137 332.632 604.843 332.669 604.553 332.73Z" fill="#4B575B"/>
<path d="M625.991 366.158C626.038 366.146 626.083 366.126 626.123 366.1L631.154 362.809C631.214 362.77 631.264 362.716 631.299 362.652C631.334 362.588 631.352 362.517 631.352 362.444C631.352 362.372 631.334 362.3 631.299 362.236C631.265 362.173 631.215 362.118 631.154 362.079L625.925 358.657C625.877 358.625 625.823 358.603 625.767 358.592C625.71 358.581 625.652 358.581 625.596 358.593C625.54 358.605 625.486 358.627 625.438 358.66C625.391 358.692 625.35 358.733 625.319 358.781C625.287 358.829 625.265 358.883 625.255 358.94C625.244 358.996 625.245 359.054 625.256 359.111C625.268 359.167 625.291 359.22 625.324 359.268C625.356 359.315 625.398 359.356 625.446 359.387L630.116 362.443L625.644 365.369C625.558 365.425 625.494 365.511 625.465 365.61C625.435 365.709 625.442 365.815 625.483 365.91C625.525 366.004 625.599 366.081 625.692 366.127C625.785 366.172 625.891 366.183 625.991 366.158H625.991Z" fill="white"/>
<path d="M618.045 366.524C618.13 366.502 618.206 366.456 618.264 366.391C618.322 366.327 618.359 366.246 618.371 366.16C618.383 366.073 618.369 365.986 618.331 365.908C618.292 365.829 618.231 365.765 618.156 365.721L613.519 363.065L618.001 359.738C618.047 359.704 618.085 359.661 618.115 359.612C618.144 359.563 618.164 359.508 618.172 359.452C618.181 359.395 618.178 359.337 618.164 359.281C618.15 359.226 618.125 359.174 618.091 359.128C618.056 359.082 618.013 359.043 617.964 359.013C617.915 358.984 617.86 358.964 617.804 358.956C617.747 358.948 617.689 358.951 617.633 358.965C617.578 358.979 617.525 359.003 617.479 359.038L612.462 362.762C612.403 362.805 612.357 362.862 612.326 362.928C612.295 362.994 612.281 363.066 612.286 363.138C612.29 363.211 612.312 363.281 612.35 363.342C612.389 363.404 612.442 363.455 612.505 363.491L617.721 366.479C617.819 366.536 617.935 366.552 618.045 366.524Z" fill="white"/>
<path d="M625.491 369.041C625.533 369.03 625.573 369.013 625.61 368.99C625.66 368.961 625.702 368.921 625.736 368.875C625.77 368.829 625.795 368.776 625.808 368.72C625.822 368.665 625.824 368.607 625.816 368.55C625.807 368.493 625.787 368.439 625.757 368.39L618.626 356.675C618.565 356.576 618.468 356.505 618.355 356.478C618.243 356.451 618.124 356.469 618.025 356.529C617.926 356.59 617.855 356.687 617.828 356.799C617.8 356.912 617.819 357.031 617.879 357.129L625.01 368.845C625.058 368.924 625.131 368.987 625.218 369.022C625.304 369.057 625.4 369.064 625.491 369.041Z" fill="white"/>
<path d="M224.582 227.893H185.941C184.365 227.893 183.087 229.17 183.087 230.745V234.517C183.087 236.092 184.365 237.369 185.941 237.369H224.582C226.158 237.369 227.436 236.092 227.436 234.517V230.745C227.436 229.17 226.158 227.893 224.582 227.893Z" fill="white"/>
<path d="M247.105 246.846H163.418C161.842 246.846 160.564 248.122 160.564 249.698V253.47C160.564 255.045 161.842 256.322 163.418 256.322H247.105C248.682 256.322 249.96 255.045 249.96 253.47V249.698C249.96 248.122 248.682 246.846 247.105 246.846Z" fill="#CCCCCC"/>
<path d="M247.105 265.798H163.418C161.842 265.798 160.564 267.075 160.564 268.65V272.422C160.564 273.997 161.842 275.274 163.418 275.274H247.105C248.682 275.274 249.96 273.997 249.96 272.422V268.65C249.96 267.075 248.682 265.798 247.105 265.798Z" fill="#CCCCCC"/>
<path d="M254.2 329.262L254.389 329.86L254.399 329.88L260.105 347.213L266.668 367.188L279.017 404.724L279.137 410.555V410.575L280.055 457.481L277.511 463.84L280.374 474.266C280.374 474.266 279.057 458.506 271.995 467.557C267.995 472.7 263.317 477.962 259.476 482.896C265.072 485.159 270.758 487.205 276.533 489.036C277.78 489.435 279.037 489.814 280.294 490.192C280.563 490.272 280.833 490.352 281.102 490.431C300.247 496.089 320.039 499.268 339.994 499.89C341.031 499.92 342.049 499.94 343.036 499.96C343.386 499.97 343.725 499.98 344.064 499.98C345.181 499.99 346.288 500 347.405 500C349.66 500 351.904 499.967 354.138 499.9C370.676 499.435 387.118 497.213 403.185 493.272C403.075 486.644 402.776 478.899 402.347 470.627C402.148 466.57 397.669 462.174 397.4 457.928C397.21 454.739 401.23 451.739 401.021 448.499C399.664 428.555 397.968 436.211 396.711 422.087C396.582 420.702 396.462 419.376 396.352 418.11C395.544 409.04 394.986 403.369 394.986 403.369L400.352 369.57L408.781 316.504L408.133 315.438L407.405 315.079L362.946 293.091L360.532 286.912C359.829 285.131 358.609 283.602 357.028 282.52C355.448 281.438 353.58 280.854 351.665 280.841L322.378 280.722C320.858 280.715 319.359 281.07 318.004 281.759C316.649 282.447 315.478 283.448 314.588 284.679L306.658 295.653L254.2 329.262Z" fill="#4B575B"/>
<path d="M285.77 396.372L279.137 410.555L274.608 420.243L266.818 461L262.918 465.136L259.576 450.493L224.602 458.252C223.455 451.883 224.295 458.468 223.587 451.481C223.786 451.281 223.995 451.082 224.205 450.883C224.764 450.364 225.232 449.876 225.222 449.408C224.823 425.307 226.02 384.292 236.015 359.443C237.581 355.386 239.645 351.539 242.16 347.991C242.359 347.722 242.549 347.453 242.738 347.183C247.347 340.735 250.26 334.386 254.389 329.87V329.86C254.415 329.84 254.438 329.816 254.459 329.791C254.474 329.783 254.488 329.773 254.499 329.761L282.868 314.73L284.085 348.898L284.952 373.457L285.77 396.372Z" fill="#4B575B"/>
<path d="M388.063 400.4L396.348 418.115L399.24 424.285L407.029 465.037L410.916 469.163L414.265 454.524L415.839 454.201L444.221 448.327L452.493 474.58C454.358 471.476 455.092 467.823 454.573 464.24C454.053 460.657 452.311 457.364 449.642 454.916C449.077 454.405 448.606 453.908 448.619 453.438C449.09 425.091 447.355 373.331 431.685 352.027C426.708 345.266 423.721 338.533 419.377 333.828C419.363 333.815 419.363 333.801 419.35 333.801L408.777 316.503L408.132 315.441L407.405 315.078L388.063 400.4Z" fill="#4B575B"/>
<path d="M337.867 272.394C359.386 272.394 376.829 254.963 376.829 233.462C376.829 211.96 359.386 194.53 337.867 194.53C316.349 194.53 298.905 211.96 298.905 233.462C298.905 254.963 316.349 272.394 337.867 272.394Z" fill="#FFB6B6"/>
<path d="M390.529 206.268C390.227 205.945 389.863 205.687 389.459 205.509C389.055 205.33 388.619 205.235 388.177 205.228L388.763 203.603C388.954 203.091 389.006 202.538 388.912 201.999C388.819 201.461 388.584 200.957 388.232 200.539C387.88 200.121 387.422 199.804 386.907 199.621C386.392 199.438 385.838 199.395 385.3 199.496L383.167 199.907L383.368 198.483C383.445 197.952 383.382 197.411 383.187 196.912C382.991 196.413 382.669 195.974 382.251 195.637C381.834 195.3 381.336 195.078 380.807 194.991C380.277 194.905 379.735 194.958 379.232 195.145C378.775 195.325 378.283 195.4 377.792 195.366C377.302 195.331 376.826 195.187 376.399 194.944C375.97 194.709 375.597 194.383 375.307 193.989C375.017 193.595 374.817 193.143 374.72 192.664L373.977 189.081L373.898 188.889C370.278 182.861 363.318 178.474 354.801 176.867C347.22 175.425 339.446 176.159 331.953 176.849C328.98 177.129 325.622 177.443 322.824 179.156C320.446 180.624 318.434 183.56 318.845 186.521C311.457 184.259 303.535 188.776 299.608 194.472C294.957 201.253 294.196 209.745 294.073 216.386C293.741 232.095 296.985 244.948 303.692 254.594C304.182 255.293 304.304 256.752 305.275 257.241L305.073 256.918C306.158 257.46 307.259 258.333 306.848 259.268C305.668 261.959 313.511 267.91 319.038 269.876C329.12 273.467 342.524 273.161 351.95 271.868L352.283 269.64C355.684 269.177 358.08 268.294 358.753 266.914C359.942 265.9 360.957 264.991 361.84 264.153L361.849 264.144C361.866 264.126 361.901 264.1 361.919 264.083C366.177 260.002 367.165 257.678 367.611 254.14C368.039 250.671 367.279 247.15 366.5 243.978C382.887 246.512 360.047 226.538 375.314 222.677C375.49 222.623 375.668 222.579 375.848 222.545C376.294 222.441 376.74 222.336 377.168 222.213C379.234 221.653 381.211 220.809 383.044 219.706C387.311 217.111 388.719 213.668 390.923 209.789C391.241 209.237 391.374 208.597 391.303 207.964C391.232 207.331 390.961 206.737 390.529 206.268Z" fill="#2F2E41"/>
<path d="M475.67 403.172C475.661 404.701 475.644 406.842 475.574 409.489C475.565 409.856 475.556 410.232 475.548 410.616C475.434 415.483 475.32 419.563 475.137 424.098C475.128 424.413 475.119 424.718 475.102 425.033C474.857 431.359 474.472 438.724 473.808 450.389C472.575 471.935 470.424 453.351 468.264 460.908C468.159 461.284 468.045 461.73 467.94 462.254C467.613 464.156 467.061 466.013 466.296 467.785C465.151 468.466 463.97 469.121 462.808 469.777C459.494 471.62 456.127 473.394 452.734 475.08C450.828 476.024 448.913 476.95 446.99 477.841C446.684 477.981 446.386 478.121 446.089 478.252C436.238 482.805 426.086 486.676 415.703 489.838C413.675 490.449 411.655 491.043 409.609 491.594C407.475 492.188 405.342 492.747 403.182 493.271C387.115 497.213 370.674 499.436 354.136 499.903C351.907 499.973 349.659 499.999 347.403 499.999C346.284 499.999 345.182 499.99 344.063 499.982C343.722 499.982 343.381 499.973 343.04 499.964C342.052 499.938 341.029 499.92 339.997 499.894C320.042 499.272 300.25 496.092 281.106 490.432L280.293 490.196C279.034 489.811 277.783 489.436 276.533 489.034C270.762 487.208 265.075 485.163 259.473 482.9C255.197 481.179 250.971 479.332 246.794 477.361C246.756 477.35 246.721 477.333 246.689 477.308C245.815 476.906 244.932 476.487 244.057 476.059C243.944 475.998 243.821 475.937 243.699 475.875C240.437 474.285 237.211 472.619 234.019 470.878C231.335 464.718 227.557 463.538 225.214 458.121C224.532 456.512 224.039 454.829 223.745 453.106C223.745 453.088 223.736 453.071 223.736 453.045C223.981 456.295 222.696 447.278 223.728 453.01C223.719 452.905 223.71 452.791 223.701 452.66C223.675 452.346 223.64 451.961 223.588 451.481C220.588 422.219 220.781 388.756 219.478 361.181C219.39 359.398 219.3 357.691 219.207 356.06C219.181 355.519 219.146 354.986 219.111 354.462C219.172 354.304 219.242 354.138 219.321 353.981C219.337 353.936 219.358 353.892 219.382 353.85C219.408 353.796 219.437 353.743 219.469 353.693C219.487 353.666 219.513 353.632 219.53 353.605C219.543 353.575 219.558 353.546 219.574 353.518C219.653 353.396 219.74 353.265 219.836 353.142C219.88 353.09 219.915 353.046 219.959 353.002C219.989 352.958 220.024 352.917 220.064 352.88C220.091 352.838 220.123 352.8 220.16 352.767C220.195 352.732 220.23 352.688 220.274 352.644C220.292 352.617 220.316 352.593 220.344 352.574C220.413 352.495 220.489 352.422 220.571 352.356C220.883 352.069 221.216 351.806 221.568 351.57C221.69 351.491 221.821 351.412 221.944 351.325C222.825 350.798 223.753 350.354 224.716 349.997C225.048 349.875 225.38 349.761 225.739 349.639C225.87 349.604 225.992 349.56 226.123 349.516C226.316 349.455 226.508 349.394 226.709 349.35C227.706 349.053 228.782 348.8 229.945 348.564C230.084 348.538 230.233 348.511 230.382 348.477C230.592 348.433 230.81 348.398 231.029 348.363C231.326 348.311 231.632 348.258 231.938 348.206C234.535 347.795 237.482 347.489 240.735 347.288C241.041 347.271 241.347 347.253 241.653 347.236C242.011 347.218 242.37 347.201 242.737 347.183C243.043 347.166 243.358 347.157 243.673 347.148C243.979 347.131 244.294 347.122 244.617 347.114C245.5 347.087 246.41 347.061 247.336 347.044C249.977 346.991 252.758 347.009 255.678 347.07C257.034 347.105 258.415 347.14 259.832 347.201C259.928 347.201 260.015 347.21 260.103 347.21C261.336 347.253 262.577 347.306 263.854 347.376C264.746 347.419 265.647 347.463 266.547 347.515C267.395 347.568 268.252 347.62 269.118 347.681C269.791 347.716 270.464 347.769 271.146 347.812C271.724 347.856 272.301 347.9 272.878 347.935L273.665 347.987C274.093 348.022 274.522 348.048 274.959 348.092C275.921 348.171 276.883 348.249 277.862 348.328C278.833 348.415 279.821 348.503 280.809 348.59C281.797 348.678 282.794 348.774 283.79 348.87C283.895 348.878 283.992 348.887 284.088 348.896C284.997 348.992 285.907 349.079 286.825 349.176C287.034 349.193 287.253 349.21 287.463 349.237C288.338 349.325 289.231 349.427 290.114 349.521C290.385 349.55 290.655 349.579 290.927 349.608C291.619 349.684 292.301 349.749 292.998 349.831C293.916 349.936 294.852 350.032 295.761 350.154C296.469 350.233 297.178 350.311 297.886 350.399C298.996 350.53 300.124 350.67 301.252 350.818C301.681 350.871 302.109 350.923 302.538 350.984C305.755 351.386 309.008 351.832 312.313 352.295C317.324 353.002 322.413 353.771 327.537 354.601C332.67 355.431 337.832 356.308 343.023 357.231C344.334 357.467 345.646 357.703 346.966 357.948C347.561 358.061 348.155 358.175 348.75 358.288C349.764 358.472 350.779 358.664 351.793 358.856C352.807 359.049 353.822 359.241 354.836 359.442C356.043 359.678 357.258 359.914 358.465 360.15C366.413 361.722 374.318 363.4 382.03 365.156C383.298 365.444 384.566 365.741 385.825 366.03C388.343 366.615 390.838 367.209 393.31 367.812C393.992 367.969 394.665 368.135 395.338 368.301C397.017 368.721 398.696 369.14 400.349 369.568L400.637 369.647C401.853 369.944 403.042 370.25 404.231 370.564C407.038 371.298 409.798 372.041 412.512 372.792C414.313 373.29 416.094 373.794 417.854 374.304C420.486 375.064 423.066 375.833 425.575 376.611C426.196 376.803 426.817 376.995 427.429 377.179C429.265 377.746 431.075 378.323 432.833 378.9C434.232 379.354 435.596 379.817 436.943 380.28C438.289 380.743 439.609 381.206 440.904 381.67C441.734 381.967 442.556 382.281 443.378 382.578C444.559 383.015 445.722 383.452 446.858 383.889C447.208 384.02 447.549 384.16 447.89 384.291C448.109 384.387 448.319 384.465 448.528 384.553C448.939 384.719 449.359 384.876 449.761 385.042C450.172 385.199 450.574 385.365 450.977 385.54C451.37 385.697 451.772 385.863 452.157 386.029C452.551 386.187 452.935 386.353 453.32 386.528C453.644 386.659 453.958 386.798 454.264 386.938C454.885 387.209 455.506 387.48 456.11 387.76C456.407 387.899 456.704 388.03 457.001 388.17L457.683 388.485C457.78 388.537 457.876 388.581 457.972 388.624C458.191 388.729 458.418 388.843 458.637 388.948C459.144 389.184 459.642 389.437 460.132 389.673C460.788 390.005 461.426 390.337 462.038 390.66C462.659 390.992 463.262 391.324 463.839 391.648C463.935 391.7 464.023 391.752 464.119 391.805C464.25 391.875 464.381 391.953 464.513 392.023C464.959 392.277 465.387 392.539 465.815 392.792C466.655 393.308 467.451 393.814 468.194 394.321C468.36 394.435 468.517 394.548 468.683 394.653C469.234 395.046 469.759 395.431 470.249 395.824C470.249 395.833 470.249 395.833 470.257 395.833C470.424 395.955 470.581 396.086 470.738 396.208C470.869 396.331 471.009 396.436 471.141 396.558C471.595 396.951 472.015 397.327 472.4 397.711C472.529 397.83 472.651 397.955 472.767 398.087C472.818 398.129 472.865 398.176 472.907 398.227C473.082 398.401 473.239 398.576 473.388 398.751C473.411 398.775 473.431 398.801 473.449 398.83C473.659 399.074 473.851 399.319 474.035 399.564C474.122 399.686 474.218 399.808 474.297 399.931C474.402 400.079 474.507 400.236 474.594 400.385C474.673 400.507 474.743 400.638 474.813 400.761C474.999 401.076 475.157 401.406 475.285 401.748C475.384 401.98 475.462 402.219 475.521 402.464C475.588 402.696 475.637 402.933 475.67 403.172Z" fill="#2F2E41"/>
<path opacity="0.2" d="M475.67 403.172C475.661 404.701 475.644 406.842 475.574 409.489C475.565 409.856 475.548 410.232 475.539 410.616C475.451 414.33 475.32 418.917 475.137 424.098C475.128 424.413 475.119 424.718 475.102 425.033C474.857 431.359 474.472 438.724 473.808 450.389C472.575 471.935 470.424 453.351 468.264 460.908C462.265 457.221 455.69 453.359 448.66 449.393C447.392 448.676 446.112 447.957 444.821 447.234C430.761 439.397 415.056 431.184 398.661 423.05C398.014 422.726 397.358 422.403 396.711 422.088C359.155 403.539 318.163 385.497 284.953 373.457C278.544 371.132 272.423 369.035 266.67 367.192C254.55 363.321 244.075 360.613 236.013 359.442C227.619 358.219 221.821 358.655 219.478 361.181C219.39 359.398 219.3 357.691 219.207 356.06C219.172 355.519 219.137 354.986 219.102 354.462C219.156 354.318 219.226 354.18 219.294 354.042C219.304 354.022 219.31 354.001 219.32 353.981C219.337 353.936 219.358 353.892 219.382 353.85C219.407 353.796 219.437 353.743 219.469 353.693C219.498 353.631 219.533 353.572 219.574 353.518C219.653 353.396 219.74 353.265 219.836 353.142C219.907 353.051 219.983 352.963 220.064 352.88C220.091 352.838 220.123 352.8 220.16 352.766C220.195 352.731 220.23 352.688 220.274 352.644C220.292 352.617 220.316 352.593 220.344 352.574C220.413 352.495 220.489 352.422 220.571 352.356C220.883 352.069 221.216 351.806 221.568 351.569C221.69 351.491 221.821 351.412 221.944 351.325C222.825 350.798 223.753 350.354 224.716 349.997C225.048 349.874 225.38 349.761 225.739 349.639C225.87 349.604 225.992 349.56 226.123 349.516C226.316 349.455 226.508 349.394 226.709 349.35C227.706 349.053 228.782 348.8 229.944 348.564C230.294 348.494 230.661 348.424 231.029 348.363C231.326 348.31 231.632 348.258 231.938 348.206C234.535 347.795 237.482 347.489 240.735 347.288C241.041 347.271 241.347 347.253 241.653 347.236C242.011 347.218 242.37 347.201 242.737 347.183C243.043 347.166 243.358 347.157 243.673 347.148C243.979 347.131 244.293 347.122 244.617 347.113C245.5 347.087 246.41 347.061 247.336 347.044C249.977 347 252.758 347.017 255.678 347.078C257.034 347.105 258.415 347.148 259.832 347.21C259.919 347.21 260.015 347.218 260.103 347.218C261.336 347.253 262.586 347.314 263.854 347.376C264.746 347.419 265.646 347.463 266.547 347.515C267.395 347.568 268.252 347.62 269.118 347.681C269.791 347.716 270.464 347.769 271.146 347.812C271.724 347.856 272.301 347.9 272.878 347.935C273.569 347.987 274.259 348.04 274.959 348.092C275.921 348.171 276.883 348.249 277.862 348.328C278.832 348.415 279.821 348.503 280.809 348.59C281.797 348.677 282.794 348.774 283.79 348.87C283.895 348.878 283.991 348.887 284.088 348.896C284.997 348.992 285.906 349.079 286.825 349.175C291.914 349.691 297.151 350.294 302.538 350.984C305.755 351.395 309.014 351.834 312.313 352.303C317.324 353.011 322.413 353.78 327.537 354.601C332.67 355.431 337.832 356.308 343.023 357.231C344.334 357.467 345.646 357.703 346.966 357.948C348.575 358.245 350.184 358.548 351.793 358.856C352.807 359.049 353.822 359.241 354.836 359.442C356.042 359.678 357.258 359.914 358.465 360.15C366.413 361.722 374.318 363.4 382.03 365.156C383.298 365.444 384.566 365.741 385.825 366.03C388.343 366.615 390.838 367.209 393.31 367.812C393.992 367.978 394.665 368.144 395.338 368.31C397.026 368.73 398.696 369.149 400.349 369.568V369.577C400.445 369.595 400.541 369.621 400.637 369.647C401.844 369.953 403.042 370.259 404.231 370.573C407.038 371.307 409.798 372.047 412.512 372.792C414.313 373.299 416.097 373.797 417.854 374.304C420.486 375.073 423.066 375.842 425.575 376.611C426.196 376.803 426.817 376.995 427.429 377.179C429.265 377.755 431.067 378.329 432.833 378.9C434.232 379.354 435.596 379.817 436.943 380.28C438.289 380.743 439.609 381.206 440.904 381.67C441.743 381.967 442.565 382.272 443.378 382.569C444.567 383.006 445.722 383.443 446.858 383.889C447.208 384.02 447.549 384.16 447.89 384.291C448.528 384.535 449.149 384.789 449.761 385.042C450.172 385.199 450.575 385.365 450.977 385.54C451.37 385.697 451.772 385.863 452.157 386.029C452.551 386.187 452.935 386.353 453.32 386.528C453.644 386.659 453.958 386.798 454.265 386.938C454.885 387.209 455.506 387.48 456.11 387.759C456.407 387.899 456.704 388.03 457.001 388.17L457.683 388.485C457.78 388.537 457.876 388.581 457.972 388.624C458.715 388.974 459.432 389.323 460.132 389.673C460.788 390.005 461.426 390.337 462.038 390.66C462.764 391.045 463.454 391.42 464.119 391.805C464.25 391.875 464.381 391.953 464.513 392.023C464.958 392.277 465.387 392.539 465.815 392.792C466.655 393.308 467.451 393.814 468.194 394.321C468.928 394.828 469.61 395.326 470.249 395.824C470.249 395.833 470.249 395.833 470.257 395.833C470.563 396.077 470.861 396.322 471.141 396.558C471.595 396.951 472.015 397.327 472.4 397.711C472.529 397.83 472.651 397.955 472.767 398.087C472.818 398.129 472.865 398.176 472.907 398.227C473.09 398.428 473.274 398.629 473.449 398.83C473.659 399.074 473.851 399.319 474.035 399.564C474.122 399.686 474.218 399.808 474.297 399.93C474.402 400.079 474.507 400.236 474.595 400.385C474.673 400.507 474.743 400.638 474.813 400.761C474.999 401.075 475.157 401.406 475.285 401.748C475.381 401.981 475.46 402.22 475.521 402.464C475.588 402.696 475.637 402.933 475.67 403.172Z" fill="black"/>
</g>
<defs>
<clipPath id="clip0_12_2">
<rect width="688" height="500" fill="white"/>
</clipPath>
</defs>
</svg>
