<svg width="792" height="500" viewBox="0 0 792 500" fill="none" xmlns="http://www.w3.org/2000/svg">
<g clip-path="url(#clip0_5_2)">
<path d="M503.691 156.429C505.185 140.347 509.311 124.619 515.905 109.874C517.742 105.771 519.765 101.758 521.972 97.8351C522.083 97.63 522.11 97.3899 522.047 97.1654C521.984 96.941 521.836 96.7498 521.635 96.6321C521.433 96.5145 521.194 96.4796 520.968 96.5349C520.741 96.5902 520.545 96.7312 520.42 96.9283C512.392 111.216 506.768 126.725 503.773 142.836C502.94 147.335 502.313 151.866 501.894 156.429C501.788 157.58 503.586 157.572 503.691 156.429Z" fill="#E6E6E6"/>
<path d="M526.326 100.717C532.612 100.717 537.709 95.6221 537.709 89.3377C537.709 83.0534 532.612 77.9589 526.326 77.9589C520.039 77.9589 514.942 83.0534 514.942 89.3377C514.942 95.6221 520.039 100.717 526.326 100.717Z" fill="#E6E6E6"/>
<path d="M504.856 156.731C505.825 146.298 508.502 136.095 512.779 126.529C513.971 123.867 515.283 121.263 516.715 118.719C516.787 118.586 516.805 118.43 516.764 118.284C516.723 118.139 516.627 118.015 516.496 117.938C516.366 117.862 516.211 117.839 516.064 117.875C515.917 117.911 515.789 118.002 515.709 118.13C510.501 127.399 506.852 137.461 504.909 147.913C504.368 150.832 503.962 153.771 503.69 156.731C503.621 157.478 504.787 157.473 504.856 156.731Z" fill="#E6E6E6"/>
<path d="M519.54 120.588C523.618 120.588 526.925 117.283 526.925 113.206C526.925 109.129 523.618 105.824 519.54 105.824C515.461 105.824 512.155 109.129 512.155 113.206C512.155 117.283 515.461 120.588 519.54 120.588Z" fill="#E6E6E6"/>
<path d="M503.384 156.034C497.729 147.212 493.561 137.522 491.048 127.349C490.35 124.517 489.782 121.658 489.346 118.771C489.321 118.622 489.238 118.488 489.117 118.398C488.995 118.309 488.843 118.27 488.693 118.29C488.543 118.31 488.407 118.388 488.313 118.506C488.219 118.625 488.175 118.775 488.19 118.926C489.787 129.436 493.101 139.613 498 149.049C499.37 151.683 500.858 154.25 502.465 156.751C502.87 157.382 503.786 156.661 503.384 156.034Z" fill="#E6E6E6"/>
<path d="M488.181 120.07C492.259 120.07 495.566 116.765 495.566 112.688C495.566 108.611 492.259 105.306 488.181 105.306C484.102 105.306 480.796 108.611 480.796 112.688C480.796 116.765 484.102 120.07 488.181 120.07Z" fill="#E6E6E6"/>
<path d="M480.713 162.565V148.061C480.714 146.619 481.288 145.237 482.308 144.217C483.328 143.198 484.711 142.624 486.154 142.622H520.01C521.453 142.624 522.836 143.198 523.856 144.217C524.876 145.237 525.45 146.619 525.452 148.061V162.565C525.45 164.007 524.876 165.39 523.856 166.41C522.836 167.429 521.453 168.003 520.01 168.004H486.154C484.711 168.003 483.328 167.429 482.308 166.41C481.288 165.39 480.714 164.007 480.713 162.565Z" fill="#F2F2F2"/>
<path d="M518.801 70.1026H504.291C502.849 70.101 501.466 69.5274 500.446 68.5077C499.425 67.4881 498.852 66.1056 498.85 64.6636V5.43899C498.852 3.99698 499.425 2.61451 500.446 1.59486C501.466 0.5752 502.849 0.00162512 504.291 0H518.801C520.244 0.00162512 521.627 0.5752 522.647 1.59486C523.667 2.61451 524.241 3.99698 524.242 5.43899V64.6636C524.241 66.1056 523.667 67.4881 522.647 68.5077C521.627 69.5274 520.244 70.101 518.801 70.1026Z" fill="#F2F2F2"/>
<path d="M523.638 11.4823H499.455V16.317H523.638V11.4823Z" fill="#CCCCCC"/>
<path d="M523.638 48.9509H499.455V53.7856H523.638V48.9509Z" fill="#CCCCCC"/>
<path d="M555.076 70.1026H540.566C539.123 70.101 537.74 69.5274 536.72 68.5077C535.7 67.4881 535.127 66.1056 535.125 64.6636V5.43899C535.127 3.99698 535.7 2.61451 536.72 1.59486C537.74 0.5752 539.123 0.00162512 540.566 0H555.076C556.519 0.00162512 557.902 0.5752 558.922 1.59486C559.942 2.61451 560.516 3.99698 560.517 5.43899V64.6636C560.516 66.1056 559.942 67.4881 558.922 68.5077C557.902 69.5274 556.519 70.101 555.076 70.1026Z" fill="#F2F2F2"/>
<path d="M559.913 11.4823H535.729V16.317H559.913V11.4823Z" fill="#CCCCCC"/>
<path d="M559.913 48.9509H535.729V53.7856H559.913V48.9509Z" fill="#CCCCCC"/>
<path d="M591.351 70.1026H576.841C575.398 70.101 574.015 69.5274 572.995 68.5077C571.975 67.4881 571.401 66.1056 571.4 64.6636V5.43899C571.401 3.99698 571.975 2.61451 572.995 1.59486C574.015 0.5752 575.398 0.00162512 576.841 0H591.351C592.793 0.00162512 594.176 0.5752 595.197 1.59486C596.217 2.61451 596.79 3.99698 596.792 5.43899V64.6636C596.79 66.1056 596.217 67.4881 595.197 68.5077C594.176 69.5274 592.793 70.101 591.351 70.1026Z" fill="#F2F2F2"/>
<path d="M596.187 11.4823H572.004V16.317H596.187V11.4823Z" fill="#CCCCCC"/>
<path d="M596.187 48.9509H572.004V53.7856H596.187V48.9509Z" fill="#CCCCCC"/>
<path d="M610.697 168.004H596.187C594.745 168.003 593.362 167.429 592.342 166.41C591.322 165.39 590.748 164.007 590.746 162.565V103.341C590.748 101.899 591.322 100.516 592.342 99.4967C593.362 98.477 594.745 97.9035 596.187 97.9019H610.697C612.14 97.9035 613.523 98.477 614.543 99.4967C615.563 100.516 616.137 101.899 616.139 103.341V162.565C616.137 164.007 615.563 165.39 614.543 166.41C613.523 167.429 612.14 168.003 610.697 168.004Z" fill="#F2F2F2"/>
<path d="M615.534 109.384H591.351V114.219H615.534V109.384Z" fill="#CCCCCC"/>
<path d="M615.534 146.853H591.351V151.687H615.534V146.853Z" fill="#CCCCCC"/>
<path d="M646.972 168.004H632.462C631.02 168.003 629.637 167.429 628.616 166.41C627.596 165.39 627.023 164.007 627.021 162.565V103.341C627.023 101.899 627.596 100.516 628.616 99.4967C629.637 98.477 631.02 97.9035 632.462 97.9019H646.972C648.415 97.9035 649.798 98.477 650.818 99.4967C651.838 100.516 652.412 101.899 652.413 103.341V162.565C652.412 164.007 651.838 165.39 650.818 166.41C649.798 167.429 648.415 168.003 646.972 168.004Z" fill="#F2F2F2"/>
<path d="M651.809 109.384H627.626V114.219H651.809V109.384Z" fill="#CCCCCC"/>
<path d="M651.809 146.853H627.626V151.687H651.809V146.853Z" fill="#CCCCCC"/>
<path d="M683.247 168.004H668.737C667.294 168.003 665.911 167.429 664.891 166.41C663.871 165.39 663.297 164.007 663.296 162.565V103.341C663.297 101.899 663.871 100.516 664.891 99.4967C665.911 98.477 667.294 97.9035 668.737 97.9019H683.247C684.69 97.9035 686.073 98.477 687.093 99.4967C688.113 100.516 688.687 101.899 688.688 103.341V162.565C688.687 164.007 688.113 165.39 687.093 166.41C686.073 167.429 684.69 168.003 683.247 168.004Z" fill="#F2F2F2"/>
<path d="M688.084 109.384H663.9V114.219H688.084V109.384Z" fill="#CCCCCC"/>
<path d="M688.084 146.853H663.9V151.687H688.084V146.853Z" fill="#CCCCCC"/>
<path d="M515.174 265.906H500.664C499.221 265.905 497.838 265.331 496.818 264.311C495.798 263.292 495.224 261.909 495.223 260.467V201.243C495.224 199.801 495.798 198.418 496.818 197.399C497.838 196.379 499.221 195.805 500.664 195.804H515.174C516.616 195.805 517.999 196.379 519.019 197.399C520.039 198.418 520.613 199.801 520.615 201.243V260.467C520.613 261.909 520.039 263.292 519.019 264.311C517.999 265.331 516.616 265.905 515.174 265.906Z" fill="#F2F2F2"/>
<path d="M520.01 207.286H495.827V212.121H520.01V207.286Z" fill="#CCCCCC"/>
<path d="M520.01 244.755H495.827V249.589H520.01V244.755Z" fill="#CCCCCC"/>
<path d="M551.449 265.906H536.939C535.496 265.905 534.113 265.331 533.093 264.311C532.073 263.292 531.499 261.909 531.497 260.467V201.243C531.499 199.801 532.073 198.418 533.093 197.399C534.113 196.379 535.496 195.805 536.939 195.804H551.449C552.891 195.805 554.274 196.379 555.294 197.399C556.314 198.418 556.888 199.801 556.89 201.243V260.467C556.888 261.909 556.314 263.292 555.294 264.311C554.274 265.331 552.891 265.905 551.449 265.906Z" fill="#F2F2F2"/>
<path d="M556.285 207.286H532.102V212.121H556.285V207.286Z" fill="#CCCCCC"/>
<path d="M556.285 244.755H532.102V249.589H556.285V244.755Z" fill="#CCCCCC"/>
<path d="M587.723 265.906H573.213C571.771 265.905 570.388 265.331 569.368 264.311C568.348 263.292 567.774 261.909 567.772 260.467V201.243C567.774 199.801 568.348 198.418 569.368 197.399C570.388 196.379 571.771 195.805 573.213 195.804H587.723C589.166 195.805 590.549 196.379 591.569 197.399C592.589 198.418 593.163 199.801 593.165 201.243V260.467C593.163 261.909 592.589 263.292 591.569 264.311C590.549 265.331 589.166 265.905 587.723 265.906Z" fill="#F2F2F2"/>
<path d="M592.56 207.286H568.377V212.121H592.56V207.286Z" fill="#CCCCCC"/>
<path d="M592.56 244.755H568.377V249.589H592.56V244.755Z" fill="#CCCCCC"/>
<path d="M627.626 70.1026H613.116C611.673 70.101 610.29 69.5274 609.27 68.5077C608.25 67.4881 607.676 66.1056 607.674 64.6636V5.43899C607.676 3.99698 608.25 2.61451 609.27 1.59486C610.29 0.5752 611.673 0.00162512 613.116 0H627.626C629.068 0.00162512 630.451 0.5752 631.471 1.59486C632.491 2.61451 633.065 3.99698 633.067 5.43899V64.6636C633.065 66.1056 632.491 67.4881 631.471 68.5077C630.451 69.5274 629.068 70.101 627.626 70.1026Z" fill="#F2F2F2"/>
<path d="M632.462 11.4823H608.279V16.317H632.462V11.4823Z" fill="#CCCCCC"/>
<path d="M632.462 48.9509H608.279V53.7856H632.462V48.9509Z" fill="#CCCCCC"/>
<path d="M663.9 70.1026H649.391C647.948 70.101 646.565 69.5274 645.545 68.5077C644.525 67.4881 643.951 66.1056 643.949 64.6636V5.43899C643.951 3.99698 644.525 2.61451 645.545 1.59486C646.565 0.5752 647.948 0.00162512 649.391 0H663.9C665.343 0.00162512 666.726 0.5752 667.746 1.59486C668.766 2.61451 669.34 3.99698 669.342 5.43899V64.6636C669.34 66.1056 668.766 67.4881 667.746 68.5077C666.726 69.5274 665.343 70.101 663.9 70.1026Z" fill="#F2F2F2"/>
<path d="M668.737 11.4823H644.554V16.317H668.737V11.4823Z" fill="#CCCCCC"/>
<path d="M668.737 48.9509H644.554V53.7856H668.737V48.9509Z" fill="#CCCCCC"/>
<path d="M700.175 70.1026H685.665C684.223 70.101 682.84 69.5274 681.82 68.5077C680.799 67.4881 680.226 66.1056 680.224 64.6636V5.43899C680.226 3.99698 680.799 2.61451 681.82 1.59486C682.84 0.5752 684.223 0.00162512 685.665 0H700.175C701.618 0.00162512 703.001 0.5752 704.021 1.59486C705.041 2.61451 705.615 3.99698 705.616 5.43899V64.6636C705.615 66.1056 705.041 67.4881 704.021 68.5077C703.001 69.5274 701.618 70.101 700.175 70.1026Z" fill="#F2F2F2"/>
<path d="M705.012 11.4823H680.829V16.317H705.012V11.4823Z" fill="#CCCCCC"/>
<path d="M705.012 48.9509H680.829V53.7856H705.012V48.9509Z" fill="#CCCCCC"/>
<path d="M736.45 70.1026H721.94C720.498 70.101 719.114 69.5274 718.094 68.5077C717.074 67.4881 716.501 66.1056 716.499 64.6636V5.43899C716.501 3.99698 717.074 2.61451 718.094 1.59486C719.114 0.5752 720.498 0.00162512 721.94 0H736.45C737.893 0.00162512 739.276 0.5752 740.296 1.59486C741.316 2.61451 741.89 3.99698 741.891 5.43899V64.6636C741.89 66.1056 741.316 67.4881 740.296 68.5077C739.276 69.5274 737.893 70.101 736.45 70.1026Z" fill="#F2F2F2"/>
<path d="M741.287 11.4823H717.104V16.317H741.287V11.4823Z" fill="#CCCCCC"/>
<path d="M741.287 48.9509H717.104V53.7856H741.287V48.9509Z" fill="#CCCCCC"/>
<path d="M790.791 71.9156H446.18C445.859 71.9156 445.552 71.7882 445.325 71.5616C445.098 71.3349 444.971 71.0275 444.971 70.7069C444.971 70.3864 445.098 70.0789 445.325 69.8523C445.552 69.6256 445.859 69.4983 446.18 69.4983H790.791C791.112 69.4983 791.419 69.6256 791.646 69.8523C791.873 70.0789 792 70.3864 792 70.7069C792 71.0275 791.873 71.3349 791.646 71.5616C791.419 71.7882 791.112 71.9156 790.791 71.9156Z" fill="#CCCCCC"/>
<path d="M790.791 169.817H446.18C445.859 169.817 445.552 169.69 445.325 169.463C445.098 169.237 444.971 168.929 444.971 168.609C444.971 168.288 445.098 167.981 445.325 167.754C445.552 167.527 445.859 167.4 446.18 167.4H790.791C791.112 167.4 791.419 167.527 791.646 167.754C791.873 167.981 792 168.288 792 168.609C792 168.929 791.873 169.237 791.646 169.463C791.419 169.69 791.112 169.817 790.791 169.817Z" fill="#CCCCCC"/>
<path d="M790.791 267.719H446.18C445.859 267.719 445.552 267.592 445.325 267.365C445.098 267.139 444.971 266.831 444.971 266.511C444.971 266.19 445.098 265.883 445.325 265.656C445.552 265.429 445.859 265.302 446.18 265.302H790.791C791.112 265.302 791.419 265.429 791.646 265.656C791.873 265.883 792 266.19 792 266.511C792 266.831 791.873 267.139 791.646 267.365C791.419 267.592 791.112 267.719 790.791 267.719Z" fill="#CCCCCC"/>
<path d="M703.203 254.331C704.697 238.249 708.823 222.521 715.416 207.776C717.254 203.673 719.276 199.66 721.484 195.737C721.594 195.532 721.621 195.292 721.558 195.067C721.495 194.843 721.347 194.652 721.146 194.534C720.945 194.416 720.706 194.382 720.479 194.437C720.252 194.492 720.056 194.633 719.932 194.83C711.904 209.118 706.28 224.627 703.284 240.738C702.451 245.237 701.825 249.768 701.405 254.331C701.299 255.481 703.097 255.474 703.203 254.331Z" fill="#E6E6E6"/>
<path d="M725.837 198.618C732.124 198.618 737.221 193.524 737.221 187.24C737.221 180.955 732.124 175.861 725.837 175.861C719.55 175.861 714.453 180.955 714.453 187.24C714.453 193.524 719.55 198.618 725.837 198.618Z" fill="#E6E6E6"/>
<path d="M704.367 254.633C705.336 244.2 708.013 233.997 712.291 224.431C713.483 221.769 714.795 219.165 716.227 216.62C716.299 216.487 716.316 216.332 716.275 216.186C716.234 216.04 716.138 215.916 716.008 215.84C715.877 215.764 715.722 215.741 715.575 215.777C715.428 215.813 715.301 215.904 715.22 216.032C710.012 225.301 706.363 235.363 704.42 245.815C703.88 248.734 703.473 251.673 703.201 254.633C703.132 255.379 704.299 255.375 704.367 254.633Z" fill="#E6E6E6"/>
<path d="M719.051 218.49C723.13 218.49 726.436 215.185 726.436 211.108C726.436 207.031 723.13 203.726 719.051 203.726C714.973 203.726 711.666 207.031 711.666 211.108C711.666 215.185 714.973 218.49 719.051 218.49Z" fill="#E6E6E6"/>
<path d="M702.896 253.936C697.24 245.114 693.073 235.423 690.559 225.251C689.861 222.419 689.294 219.56 688.857 216.673C688.832 216.523 688.75 216.39 688.628 216.3C688.506 216.211 688.354 216.172 688.204 216.192C688.054 216.212 687.918 216.29 687.824 216.408C687.73 216.527 687.686 216.677 687.701 216.828C689.298 227.338 692.612 237.515 697.511 246.951C698.881 249.584 700.369 252.152 701.976 254.653C702.381 255.284 703.298 254.563 702.896 253.936Z" fill="#E6E6E6"/>
<path d="M687.692 217.972C691.771 217.972 695.077 214.667 695.077 210.59C695.077 206.513 691.771 203.208 687.692 203.208C683.613 203.208 680.307 206.513 680.307 210.59C680.307 214.667 683.613 217.972 687.692 217.972Z" fill="#E6E6E6"/>
<path d="M680.224 260.467V245.963C680.226 244.521 680.799 243.139 681.82 242.119C682.84 241.1 684.223 240.526 685.665 240.524H719.522C720.964 240.526 722.347 241.1 723.368 242.119C724.388 243.139 724.961 244.521 724.963 245.963V260.467C724.961 261.909 724.388 263.292 723.368 264.311C722.347 265.331 720.964 265.905 719.522 265.906H685.665C684.223 265.905 682.84 265.331 681.82 264.311C680.799 263.292 680.226 261.909 680.224 260.467Z" fill="#F2F2F2"/>
<path d="M461.899 439.35H1.20916C0.888471 439.35 0.580934 439.222 0.354172 438.996C0.127411 438.769 0 438.462 0 438.141C0 437.821 0.127411 437.513 0.354172 437.286C0.580934 437.06 0.888471 436.932 1.20916 436.932H461.899C462.22 436.932 462.527 437.06 462.754 437.286C462.981 437.513 463.108 437.821 463.108 438.141C463.108 438.462 462.981 438.769 462.754 438.996C462.527 439.222 462.22 439.35 461.899 439.35Z" fill="#3F3D56"/>
<path d="M240.694 281.015C258.725 281.015 273.342 266.404 273.342 248.381C273.342 230.357 258.725 215.747 240.694 215.747C222.664 215.747 208.047 230.357 208.047 248.381C208.047 266.404 222.664 281.015 240.694 281.015Z" fill="#2F2E41"/>
<path d="M209.674 457.874L208.81 443.082L265.478 432.706L266.755 454.539L209.674 457.874Z" fill="#FFB8B8"/>
<path d="M212.42 432.268L214.088 460.797L196.118 461.847L193.399 415.356C195.759 415.218 198.123 415.546 200.356 416.321C202.589 417.097 204.648 418.304 206.414 419.874C208.18 421.445 209.619 423.348 210.65 425.474C211.68 427.601 212.282 429.909 212.42 432.268Z" fill="#2F2E41"/>
<path d="M234.322 457.738L224.909 469.186L176.257 438.342L190.149 421.447L234.322 457.738Z" fill="#FFB8B8"/>
<path d="M214.913 474.674L233.066 452.597L246.973 464.022L217.389 500C215.563 498.5 214.051 496.654 212.938 494.57C211.825 492.485 211.134 490.201 210.904 487.85C210.674 485.498 210.91 483.124 211.598 480.863C212.286 478.603 213.412 476.5 214.913 474.674Z" fill="#2F2E41"/>
<path d="M207.234 404.504L200.801 434.816C200.653 435.514 200.662 436.236 200.826 436.93C200.99 437.625 201.305 438.274 201.75 438.832C202.195 439.39 202.758 439.843 203.398 440.158C204.039 440.472 204.741 440.642 205.455 440.653L268.691 441.673C269.404 441.684 270.111 441.538 270.76 441.245C271.41 440.951 271.987 440.518 272.449 439.976C272.912 439.434 273.249 438.796 273.436 438.108C273.623 437.421 273.656 436.7 273.532 435.998L268.001 404.667C267.803 403.548 267.218 402.534 266.347 401.803C265.476 401.073 264.375 400.672 263.238 400.672H211.965C210.857 400.672 209.782 401.053 208.921 401.751C208.059 402.448 207.464 403.42 207.234 404.504Z" fill="#2F2E41"/>
<path d="M217.72 415.176C217.72 415.176 156.053 376.499 143.962 397.046C137.916 407.32 140.939 417.292 145.473 424.695C149.681 431.435 155.721 436.84 162.888 440.276L212.884 464.732L231.021 445.393L218.929 434.515L217.72 415.176Z" fill="#2F2E41"/>
<path d="M249.158 409.133C249.158 409.133 328.963 386.168 313.244 429.68C297.525 473.192 238.276 456.271 238.276 456.271L232.23 438.141L252.786 423.637L249.158 409.133Z" fill="#2F2E41"/>
<path d="M241.104 285.519C257.506 285.519 270.802 272.228 270.802 255.833C270.802 239.437 257.506 226.146 241.104 226.146C224.702 226.146 211.405 239.437 211.405 255.833C211.405 272.228 224.702 285.519 241.104 285.519Z" fill="#FFB8B8"/>
<path d="M242.66 413.93C230.319 413.743 218.042 412.127 206.074 409.112L205.72 409.015L189.148 332.815C187.657 326.119 188.671 319.109 191.998 313.109C195.324 307.109 200.734 302.535 207.204 300.249C227.192 293.081 248.976 292.646 269.234 299.011H269.234C276.031 301.201 281.753 305.872 285.257 312.092C288.761 318.312 289.791 325.624 288.139 332.569L269.629 408.951L269.368 409.075C261.676 412.718 252.057 413.93 242.66 413.93Z" fill="#CCCCCC"/>
<path d="M220.399 419.849C221.001 418.178 221.962 416.658 223.215 415.398C224.468 414.137 225.982 413.167 227.651 412.555C229.32 411.942 231.102 411.703 232.873 411.854C234.645 412.006 236.361 412.543 237.902 413.429L270.533 385.116L273.485 407.366L242.046 430.841C240.385 433.33 237.869 435.123 234.974 435.882C232.079 436.64 229.007 436.311 226.338 434.956C223.67 433.601 221.592 431.315 220.497 428.531C219.402 425.747 219.367 422.658 220.399 419.849Z" fill="#FFB8B8"/>
<path d="M251.52 426.025C250.989 426.024 250.461 425.947 249.953 425.795C249.127 425.555 248.371 425.12 247.748 424.528C247.124 423.936 246.652 423.203 246.37 422.391L242.432 411.236C242.063 410.206 242.016 409.087 242.297 408.029C242.579 406.971 243.175 406.023 244.006 405.311L288.466 378.631L270.94 300.477L271.386 300.37C271.567 300.325 289.524 296.24 296.882 315.853C302.035 329.59 321.103 359.459 319.758 379.642C319.502 383.68 317.893 387.513 315.19 390.524C312.486 393.534 308.847 395.546 304.859 396.234L254.814 424.895C253.871 425.626 252.713 426.023 251.52 426.025Z" fill="#CCCCCC"/>
<path d="M256.507 417.198C255.905 415.526 254.943 414.007 253.69 412.746C252.438 411.486 250.923 410.515 249.255 409.903C247.586 409.291 245.803 409.052 244.032 409.203C242.261 409.354 240.544 409.892 239.004 410.777L206.372 382.465L203.42 404.715L234.86 428.19C236.52 430.678 239.036 432.472 241.931 433.231C244.826 433.989 247.899 433.66 250.567 432.305C253.235 430.95 255.314 428.664 256.408 425.88C257.503 423.095 257.538 420.006 256.507 417.198Z" fill="#FFB8B8"/>
<path d="M228.659 426.025C227.467 426.023 226.308 425.626 225.366 424.895L171.693 398.652C167.705 397.963 164.066 395.951 161.362 392.941C158.659 389.93 157.05 386.097 156.794 382.06C155.449 361.876 178.145 329.59 183.298 315.853C190.655 296.24 208.612 300.324 208.794 300.37L209.239 300.477L188.086 381.048L236.173 405.311C237.005 406.023 237.601 406.971 237.882 408.029C238.163 409.087 238.116 410.206 237.748 411.236L233.809 422.391C233.527 423.203 233.055 423.936 232.432 424.528C231.809 425.12 231.053 425.555 230.227 425.795C229.718 425.947 229.19 426.024 228.659 426.025Z" fill="#CCCCCC"/>
<path d="M292.688 438.141H185.073C182.829 438.138 180.678 437.246 179.091 435.66C177.504 434.074 176.611 431.923 176.609 429.68V370.456C176.611 368.213 177.504 366.062 179.091 364.476C180.678 362.89 182.829 361.998 185.073 361.995H292.688C294.932 361.998 297.084 362.89 298.67 364.476C300.257 366.062 301.15 368.213 301.152 370.456V429.68C301.15 431.923 300.257 434.074 298.67 435.66C297.084 437.246 294.932 438.138 292.688 438.141Z" fill="white"/>
<path d="M238.881 407.32C242.887 407.32 246.136 404.073 246.136 400.068C246.136 396.063 242.887 392.816 238.881 392.816C234.874 392.816 231.626 396.063 231.626 400.068C231.626 404.073 234.874 407.32 238.881 407.32Z" fill="white"/>
<path d="M211.108 254.624C209.348 250.162 212.236 244.843 216.52 242.681C220.804 240.52 225.974 240.931 230.556 242.356C234.407 243.553 238.016 245.409 241.773 246.874C245.477 248.515 249.523 249.235 253.566 248.973C257.574 248.521 261.562 246.275 263.202 242.592C264.902 238.774 263.746 234.115 261.128 230.857C258.343 227.707 254.738 225.391 250.715 224.167C241.879 221.056 231.673 220.965 223.47 225.488C215.267 230.011 209.692 239.641 211.388 248.851" fill="#2F2E41"/>
<path d="M39.4942 425.231C40.9881 409.149 45.114 393.421 51.7073 378.676C53.5449 374.573 55.5675 370.56 57.7751 366.637C57.8858 366.432 57.9125 366.192 57.8495 365.967C57.7865 365.743 57.6387 365.552 57.4374 365.434C57.236 365.316 56.9969 365.282 56.7703 365.337C56.5438 365.392 56.3476 365.533 56.2231 365.73C48.1951 380.018 42.571 395.527 39.5756 411.638C38.7423 416.137 38.1161 420.668 37.6968 425.231C37.5903 426.382 39.3883 426.374 39.4942 425.231Z" fill="#E6E6E6"/>
<path d="M62.1284 369.519C68.4153 369.519 73.5119 364.424 73.5119 358.14C73.5119 351.855 68.4153 346.761 62.1284 346.761C55.8414 346.761 50.7449 351.855 50.7449 358.14C50.7449 364.424 55.8414 369.519 62.1284 369.519Z" fill="white"/>
<path d="M40.6586 425.533C41.6277 415.1 44.3044 404.897 48.5818 395.331C49.774 392.669 51.0861 390.065 52.5183 387.521C52.5901 387.387 52.6074 387.232 52.5665 387.086C52.5256 386.94 52.4297 386.816 52.2991 386.74C52.1685 386.664 52.0134 386.641 51.8664 386.677C51.7195 386.713 51.5922 386.804 51.5114 386.932C46.3033 396.201 42.6547 406.263 40.7114 416.715C40.1708 419.634 39.7646 422.573 39.4926 425.533C39.4235 426.28 40.59 426.275 40.6586 425.533H40.6586Z" fill="#E6E6E6"/>
<path d="M55.3425 389.39C59.4211 389.39 62.7275 386.085 62.7275 382.008C62.7275 377.931 59.4211 374.626 55.3425 374.626C51.2638 374.626 47.9575 377.931 47.9575 382.008C47.9575 386.085 51.2638 389.39 55.3425 389.39Z" fill="white"/>
<path d="M39.1869 424.836C33.5315 416.014 29.3639 406.323 26.8505 396.151C26.1525 393.319 25.5852 390.46 25.1485 387.573C25.1233 387.424 25.0411 387.29 24.9193 387.2C24.7975 387.111 24.6455 387.072 24.4955 387.092C24.3456 387.112 24.2093 387.19 24.1155 387.308C24.0217 387.427 23.9776 387.577 23.9926 387.728C25.5895 398.238 28.9036 408.415 33.8026 417.851C35.1724 420.484 36.6607 423.052 38.2675 425.553C38.6724 426.184 39.5892 425.463 39.1869 424.836Z" fill="#E6E6E6"/>
<path d="M23.9833 388.872C28.062 388.872 31.3684 385.567 31.3684 381.49C31.3684 377.413 28.062 374.108 23.9833 374.108C19.9047 374.108 16.5983 377.413 16.5983 381.49C16.5983 385.567 19.9047 388.872 23.9833 388.872Z" fill="white"/>
<path d="M16.5154 431.367V416.863C16.517 415.421 17.0908 414.039 18.1109 413.019C19.131 412 20.514 411.426 21.9566 411.424H55.8131C57.2557 411.426 58.6387 412 59.6588 413.019C60.6789 414.039 61.2527 415.421 61.2543 416.863V431.367C61.2527 432.809 60.6789 434.192 59.6588 435.211C58.6387 436.231 57.2557 436.805 55.8131 436.806H21.9566C20.514 436.805 19.131 436.231 18.1109 435.211C17.0908 434.192 16.517 432.809 16.5154 431.367Z" fill="#F2F2F2"/>
<path d="M380.171 448.295C380.171 456.244 373.724 459.857 365.771 459.857C357.818 459.857 351.371 456.244 351.371 448.295C351.371 440.345 354.571 431.07 365.771 434.268C376.971 429.47 380.171 440.345 380.171 448.295Z" fill="#FF6584"/>
<path d="M365.07 437.992C364.51 437.993 363.969 437.79 363.548 437.421C363.127 437.052 362.855 436.542 362.783 435.987C362.306 432.021 359.678 424.253 358.571 421.098L358.57 421.097C358.458 420.783 358.424 420.447 358.47 420.117C358.517 419.788 358.642 419.474 358.837 419.204C359.022 418.962 359.257 418.762 359.526 418.617C359.794 418.473 360.09 418.387 360.395 418.365C360.699 418.343 361.004 418.385 361.291 418.49C361.577 418.594 361.838 418.758 362.057 418.971C362.252 419.176 362.403 419.418 362.501 419.684C362.598 419.949 362.64 420.232 362.623 420.514C362.406 424.564 365.359 431.107 367.139 434.648C367.307 434.982 367.392 435.352 367.385 435.725C367.379 436.099 367.281 436.465 367.102 436.793C366.922 437.121 366.666 437.4 366.354 437.607C366.043 437.813 365.686 437.941 365.314 437.979C365.233 437.988 365.151 437.993 365.07 437.992Z" fill="#3F3D56"/>
<path d="M375.725 429.059C380.723 424.969 376.802 416.6 370.545 418.207C369.704 418.408 368.928 418.821 368.292 419.408C364.454 423.032 363.86 432.304 363.86 432.304C363.86 432.304 370.636 433.221 375.725 429.059Z" fill="#3F3D56"/>
</g>
<defs>
<clipPath id="clip0_5_2">
<rect width="792" height="500" fill="white"/>
</clipPath>
</defs>
</svg>
