<svg width="1512" height="123" viewBox="0 0 1512 123" fill="none" xmlns="http://www.w3.org/2000/svg">
<path fill-rule="evenodd" clip-rule="evenodd" d="M1516.93 96.3158L1453.55 89.9545C1390.18 83.5931 1263.43 70.8705 1136.7 80.6215C1009.98 90.3725 883.27 122.597 756.534 122.717C629.797 122.836 503.031 90.8502 376.285 81.3381C249.54 71.826 122.815 84.7875 59.453 91.2683L-3.90919 97.749L-3.99996 1.43328L59.3683 1.37356C122.737 1.31384 249.473 1.19441 376.209 1.07497C502.946 0.955534 629.683 0.836099 756.419 0.716664C883.155 0.597228 1009.89 0.477793 1136.63 0.358357C1263.36 0.238922 1390.1 0.119486 1453.47 0.0597686L1516.84 5.09024e-05L1516.93 96.3158Z" fill="white"/>
</svg>
